<?xml version="1.0" standalone="no"?>
<!DOCTYPE svg PUBLIC "-//W3C//DTD SVG 1.1//EN" "http://www.w3.org/Graphics/SVG/1.1/DTD/svg11.dtd" >
<svg>
<metadata>
Created by FontForge 20090914 at Mon Apr 22 23:11:50 2013
 By www-data
Copyright (c) 1989, 1990 Adobe Systems Incorporated.  All Rights Reserved.Trade Gothic is a trademark of Linotype AG and/or its subsidiaries.
</metadata>
<defs>
<font id="TradeGothic-BoldCondTwenty" horiz-adv-x="444" >
  <font-face 
    font-family="TradeGothic"
    font-weight="700"
    font-stretch="normal"
    units-per-em="1000"
    panose-1="2 0 8 6 4 0 0 2 0 4"
    ascent="800"
    descent="-200"
    x-height="538"
    cap-height="722"
    bbox="-167 -236.002 1000 963.998"
    underline-thickness="50"
    underline-position="-75"
    unicode-range="U+0020-U+FB02"
  />
<missing-glyph horiz-adv-x="222" 
 />
    <glyph glyph-name=".notdef" horiz-adv-x="222" 
 />
    <glyph glyph-name="space" unicode=" " horiz-adv-x="222" 
 />
    <glyph glyph-name="space" unicode="&#xa0;" horiz-adv-x="222" 
 />
    <glyph glyph-name="exclam" unicode="!" horiz-adv-x="278" 
d="M98 212h82l22 510h-126zM198 0v118h-118v-118h118z" />
    <glyph glyph-name="quotedbl" unicode="&#x22;" horiz-adv-x="333" 
d="M40 448h94v274h-94v-274zM199 448h94v274h-94v-274z" />
    <glyph glyph-name="numbersign" unicode="#" 
d="M408 292h-62l16 138h72v78h-64l25 214h-89l-25 -214h-81l25 214h-89l-25 -214h-76v-78h66l-15 -138h-76v-78h66l-25 -214h91l24 214h81l-25 -214h90l24 214h72v78zM272 430l-16 -138h-80l16 138h80z" />
    <glyph glyph-name="dollar" unicode="$" 
d="M192 722c-24.667 -3.33301 -46.335 -10.4951 -65.002 -21.4951s-34.5 -24.667 -47.5 -41s-22.833 -35 -29.5 -56s-10 -43.167 -10 -66.5c0 -24 4.33301 -46.167 13 -66.5s20 -38.833 34 -55.5s30.167 -31.834 48.5 -45.501s37.166 -26.5 56.499 -38.5v-235
c-19.333 5.33301 -35.666 15.666 -48.999 30.999s-23.333 31.666 -30 48.999l-83 -63c18 -28 40.833 -53 68.5 -75s58.834 -34.667 93.501 -38v-116h60v116c26 2 49.167 8.66699 69.5 20s37.333 25.666 51 42.999s24 37.166 31 59.499s10.5 46.166 10.5 71.499
c0 28 -4.5 52.833 -13.5 74.5s-21 41.167 -36 58.5s-32.167 33.333 -51.5 48s-39.666 28.667 -60.999 42v207c15.333 -3.33301 27.833 -10.666 37.5 -21.999s18.167 -23.333 25.5 -36l76 65c-16.667 23.333 -37 43 -61 59s-50 26.667 -78 32v88h-60v-88zM191.999 450.005
c-15.333 14 -27.5 28.6689 -36.5 44.002s-13.5 34 -13.5 56c0 17.333 4.5 32.666 13.5 45.999s21.167 22.666 36.5 27.999v-174zM251.999 293.007c16.667 -15.333 30.167 -30.333 40.5 -45s15.5 -34.334 15.5 -59.001c0 -23.333 -4.16699 -42.666 -12.5 -57.999
s-22.833 -27 -43.5 -35v197z" />
    <glyph glyph-name="percent" unicode="%" horiz-adv-x="778" 
d="M50 558c0 -22.667 4.33301 -44 13 -64s20.334 -37.333 35.001 -52s32 -26.334 52 -35.001s41.333 -13 64 -13s44 4.33301 64 13s37.333 20.334 52 35.001s26.334 32 35.001 52s13 41.333 13 64s-4.33301 44 -13 64s-20.334 37.333 -35.001 52s-32 26.334 -52 35.001
s-41.333 13 -64 13s-44 -4.33301 -64 -13s-37.333 -20.334 -52 -35.001s-26.334 -32 -35.001 -52s-13 -41.333 -13 -64zM130 558c0 23.333 8.16699 43.166 24.5 59.499s36.166 24.5 59.499 24.5s43.166 -8.16699 59.499 -24.5s24.5 -36.166 24.5 -59.499
s-8.16699 -43.166 -24.5 -59.499s-36.166 -24.5 -59.499 -24.5s-43.166 8.16699 -59.499 24.5s-24.5 36.166 -24.5 59.499zM480 164c0 23.333 8.16699 43.166 24.5 59.499s36.166 24.5 59.499 24.5s43.166 -8.16699 59.499 -24.5s24.5 -36.166 24.5 -59.499
s-8.16699 -43.166 -24.5 -59.499s-36.166 -24.5 -59.499 -24.5s-43.166 8.16699 -59.499 24.5s-24.5 36.166 -24.5 59.499zM400 164c0 -22.667 4.33301 -44 13 -64s20.334 -37.333 35.001 -52s32 -26.334 52 -35.001s41.333 -13 64 -13s44 4.33301 64 13
s37.333 20.334 52 35.001s26.334 32 35.001 52s13 41.333 13 64s-4.33301 44 -13 64s-20.334 37.333 -35.001 52s-32 26.334 -52 35.001s-41.333 13 -64 13s-44 -4.33301 -64 -13s-37.333 -20.334 -52 -35.001s-26.334 -32 -35.001 -52s-13 -41.333 -13 -64zM557 732
l-409 -742h75l409 742h-75z" />
    <glyph glyph-name="ampersand" unicode="&#x26;" horiz-adv-x="556" 
d="M192 589c0 22.667 4.33301 40.167 13 52.5s20.667 18.5 36 18.5c14.667 0 25.834 -6 33.501 -18s11.5 -32 11.5 -60c0 -25.333 -6.33301 -48.833 -19 -70.5s-26.334 -42.167 -41.001 -61.5c-8.66699 21.333 -16.5 44 -23.5 68s-10.5 47.667 -10.5 71zM404 350
c-5.33301 -23.333 -11.8311 -46.001 -19.498 -68.001s-15.834 -44 -24.501 -66c-17.333 22.667 -33.5 46.334 -48.5 71.001s-28.833 50 -41.5 76l43 47.5c14.667 16.333 28 33.5 40 51.5s21.833 36.833 29.5 56.5s11.5 40.834 11.5 63.501c0 45.333 -13 81.666 -39 108.999
s-62 41 -108 41c-26 0 -48.833 -4.33301 -68.5 -13s-36 -20.5 -49 -35.5s-22.833 -32.833 -29.5 -53.5s-10 -43.334 -10 -68.001c0 -32 6.16699 -65.833 18.5 -101.5s25.166 -68.167 38.499 -97.5c-25.333 -27.333 -47.5 -58.666 -66.5 -93.999s-28.5 -72 -28.5 -110
c0 -25.333 4.16699 -48.333 12.5 -69s20 -38.334 35 -53.001s33.167 -26.167 54.5 -34.5s45 -12.5 71 -12.5c31.333 0 57.833 4.33301 79.5 13s42.5 22.667 62.5 42c38.667 -35.333 85.334 -53.666 140.001 -54.999v110c-12.667 2 -25 6 -37 12s-22.667 13.333 -32 22
l38.5 93c12.333 30.667 22.166 62.667 29.499 96zM166.002 174.999c0 19.333 2.49902 35.002 7.49902 47.002s12.833 26 23.5 42c13.333 -26.667 28.333 -51.834 45 -75.501s34.667 -46.834 54 -69.501c-9.33301 -8 -18.166 -13.5 -26.499 -16.5s-18.5 -4.5 -30.5 -4.5
c-21.333 0 -38.833 7.5 -52.5 22.5s-20.5 33.167 -20.5 54.5z" />
    <glyph glyph-name="quotesingle" unicode="'" horiz-adv-x="222" 
d="M64 448h94v274h-94v-274z" />
    <glyph glyph-name="parenleft" unicode="(" horiz-adv-x="278" 
d="M150 732c-36.667 -57.333 -65.5 -121.337 -86.5 -192.004s-31.5 -143 -31.5 -217s10.5 -146.333 31.5 -217s49.833 -134.667 86.5 -192h96c-38 58.667 -67.167 122.834 -87.5 192.501s-30.5 141.834 -30.5 216.501s10.167 146.834 30.5 216.501
s49.5 133.834 87.5 192.501h-96z" />
    <glyph glyph-name="parenright" unicode=")" horiz-adv-x="278" 
d="M32 732c38 -58.667 67.167 -122.83 87.5 -192.497s30.5 -141.834 30.5 -216.501s-10.167 -146.834 -30.5 -216.501s-49.5 -133.834 -87.5 -192.501h96c36.667 57.333 65.5 121.333 86.5 192s31.5 143 31.5 217s-10.5 146.333 -31.5 217s-49.833 134.667 -86.5 192h-96z
" />
    <glyph glyph-name="asterisk" unicode="*" 
d="M372 645c-40 -24 -82.335 -46.333 -127.002 -67c2 24.667 5.16699 49 9.5 73s9.16602 47.667 14.499 71h-94c5.33301 -23.333 10.166 -47 14.499 -71s7.5 -48.333 9.5 -73c-44.667 20.667 -87 43 -127 67l-30 -89c25.333 -1.33301 50.5 -3.66602 75.5 -6.99902l75.5 -10
c-17.333 -19.333 -35.166 -38 -53.499 -56s-37.5 -35 -57.5 -51l79 -55c8.66699 24 18.334 47.5 29.001 70.5l32 69.5l32 -69.5c10.667 -23 20.334 -46.5 29.001 -70.5l79 55c-20 16 -39.167 33 -57.5 51s-36.166 36.667 -53.499 56l75.5 10
c25 3.33301 50.167 5.66602 75.5 6.99902z" />
    <glyph glyph-name="plus" unicode="+" horiz-adv-x="600" 
d="M251 302h-204v-98h204v-204h98v204h204v98h-204v204h-98v-204z" />
    <glyph glyph-name="comma" unicode="," horiz-adv-x="222" 
d="M170 118h-118v-118h45l-49 -124h53l69 124v118z" />
    <glyph glyph-name="hyphen" unicode="-" horiz-adv-x="333" 
d="M289 223v92h-245v-92h245z" />
    <glyph glyph-name="period" unicode="." horiz-adv-x="222" 
d="M170 0v118h-118v-118h118z" />
    <glyph glyph-name="slash" unicode="/" horiz-adv-x="278" 
d="M-21 -10h98l222 742h-98z" />
    <glyph glyph-name="zero" unicode="0" 
d="M280 157c0 -46 -19.333 -69 -58 -69s-58 23 -58 69v408c0 46 19.333 69 58 69s58 -23 58 -69v-408zM46 188c0 -68.667 13.667 -118.834 41 -150.501s72.333 -47.5 135 -47.5s107.667 15.833 135 47.5s41 81.834 41 150.501v346c0 68.667 -13.667 118.834 -41 150.501
s-72.333 47.5 -135 47.5s-107.667 -15.833 -135 -47.5s-41 -81.834 -41 -150.501v-346z" />
    <glyph glyph-name="one" unicode="1" 
d="M177 0l112.001 -0.000976562v732h-63c-20.667 -17.333 -43.334 -33.666 -68.001 -48.999s-51 -30 -79 -44v-67h98v-572z" />
    <glyph glyph-name="two" unicode="2" 
d="M389 0l0.000976562 102.001h-219c48.667 68 88 125.333 118 172s53.333 87.334 70 122.001s27.834 65.5 33.501 92.5s8.5 54.833 8.5 83.5c0 20.667 -4 40.667 -12 60s-19.333 36.5 -34 51.5s-32.334 26.833 -53.001 35.5s-43.667 13 -69 13
c-29.333 0 -55.333 -4.83301 -78 -14.5s-41.834 -23 -57.501 -40s-27.667 -36.833 -36 -59.5s-12.5 -47.334 -12.5 -74.001v-34h118v49c0 22 5 40 15 54s25 21 45 21c17.333 0 31 -6.5 41 -19.5s15 -33.833 15 -62.5c0 -26.667 -5.16699 -54.834 -15.5 -84.501
s-25.5 -62.5 -45.5 -98.5s-44.833 -76.333 -74.5 -121l-102.5 -151v-97h345z" />
    <glyph glyph-name="three" unicode="3" 
d="M46 209l0.00390625 -43.0049c0 -62 14.667 -106.833 44 -134.5s69.666 -41.5 120.999 -41.5c62 0 107.5 17.167 136.5 51.5s43.5 87.833 43.5 160.5c0 24.667 -1.16699 46 -3.5 64s-6.83301 34 -13.5 48s-15.834 26.333 -27.501 37s-26.5 20.667 -44.5 30
c32 17.333 53 38.833 63 64.5s15 59.5 15 101.5c0 24 -3.33301 47.167 -10 69.5s-16.834 42 -30.501 59s-30.5 30.667 -50.5 41s-43.333 15.5 -70 15.5c-27.333 0 -51.333 -4.16699 -72 -12.5s-38.334 -20 -53.001 -35s-25.667 -32.667 -33 -53s-11 -42.833 -11 -67.5v-34
h112v30c0 28.667 5 48.167 15 58.5s23.667 15.5 41 15.5c18.667 0 31.667 -7.5 39 -22.5s11 -39.5 11 -73.5c0 -21.333 -1.83301 -39.166 -5.5 -53.499s-9.5 -25.666 -17.5 -33.999s-18.5 -14.166 -31.5 -17.499s-28.5 -5 -46.5 -5v-98c38 0 65.167 -7.16699 81.5 -21.5
s24.5 -41.166 24.5 -80.499v-55c0 -30 -5.33301 -51.667 -16 -65s-25 -20 -43 -20c-19.333 0 -33.5 6.33301 -42.5 19s-13.5 30.334 -13.5 53.001v49h-112z" />
    <glyph glyph-name="four" unicode="4" 
d="M111 266l121 282h2v-282h-123zM232 0h114v174h66v92h-66v456h-120l-210 -456v-92h216v-174z" />
    <glyph glyph-name="five" unicode="5" 
d="M50 209l-0.000976562 -54.9971c0 -30 4.5 -55.5 13.5 -76.5s21.5 -38 37.5 -51s34.833 -22.333 56.5 -28s45.167 -8.5 70.5 -8.5c60 0 103 18.333 129 55s39 93 39 169v100c0 60.667 -10 107.5 -30 140.5s-54 49.5 -102 49.5c-19.333 0 -36.166 -2.33301 -50.499 -7
s-29.166 -16.334 -44.499 -35.001l-2 2l7 156h195l4 102h-301c0 -42.667 -0.333008 -80.834 -1 -114.501s-1.33398 -64.834 -2.00098 -93.501s-1.66699 -56 -3 -82s-2.33301 -53 -3 -81h96c5.33301 15.333 13 28.333 23 39s24.667 16 44 16c14 0 26.167 -5.16699 36.5 -15.5
s15.5 -27.166 15.5 -50.499v-164c0 -32.667 -5.33301 -55.5 -16 -68.5s-25.667 -19.5 -45 -19.5c-16.667 0 -30 5.66699 -40 17s-15 26.666 -15 45.999v58h-112z" />
    <glyph glyph-name="six" unicode="6" 
d="M383 528l0.000976562 44.001c0 22.667 -3.83301 44 -11.5 64s-18.5 37.167 -32.5 51.5s-30.833 25.5 -50.5 33.5s-41.834 11.667 -66.501 11c-62.667 0 -107.667 -15.833 -135 -47.5s-41 -81.834 -41 -150.501v-346c0 -68.667 13.667 -118.834 41 -150.501
s72.333 -47.5 135 -47.5s107.667 17.5 135 52.5s41 90.833 41 167.5v86c0 26.667 -3.5 49.334 -10.5 68.001s-16.5 34 -28.5 46s-26 20.667 -42 26s-33 8 -51 8c-12.667 0 -23.5 -1 -32.5 -3s-17.333 -5 -25 -9s-15 -9 -22 -15s-14.5 -13 -22.5 -21v169
c0 46 19.333 69 58 69c35.333 0 53 -23 53 -69v-37h108zM164.001 313.001c7.33301 6 17 12.999 29 20.999s23.667 12 35 12c15.333 0 27.833 -5.66699 37.5 -17s14.5 -28.666 14.5 -51.999v-120c0 -46 -19.333 -69 -58 -69s-58 23 -58 69v156z" />
    <glyph glyph-name="seven" unicode="7" 
d="M263 620l-145 -620h117l147 652v70h-326v-102h207z" />
    <glyph glyph-name="eight" unicode="8" 
d="M46 200c0 -68.667 14.6689 -120.834 44.002 -156.501s73.333 -53.5 132 -53.5s102.667 17.833 132 53.5s44 87.834 44 156.501c0 44 -4.83301 81 -14.5 111s-29.834 54.667 -60.501 74c22 16 38.333 37 49 63s16 53 16 81c0 70 -15 121.333 -45 154s-70.333 49 -121 49
c-51.333 0 -91.833 -16.333 -121.5 -49s-44.5 -84 -44.5 -154c0 -28 5.33301 -55 16 -81s27 -47 49 -63c-30.667 -19.333 -50.834 -44 -60.501 -74s-14.5 -67 -14.5 -111zM222.002 88c-24 0 -40.667 10.5 -50 31.5s-14 50.5 -14 88.5s4.66699 67.5 14 88.5s26 31.5 50 31.5
s40.667 -10.5 50 -31.5s14 -50.5 14 -88.5s-4.66699 -67.5 -14 -88.5s-26 -31.5 -50 -31.5zM222.002 436c-19.333 0 -33.166 7.66699 -41.499 23s-12.5 40.666 -12.5 75.999s4.16699 60.666 12.5 75.999s22.166 23 41.499 23s33.166 -7.66699 41.499 -23
s12.5 -40.666 12.5 -75.999s-4.16699 -60.666 -12.5 -75.999s-22.166 -23 -41.499 -23z" />
    <glyph glyph-name="nine" unicode="9" 
d="M61 194l-0.000976562 -44.001c0 -23.333 3.83301 -44.833 11.5 -64.5s18.5 -36.667 32.5 -51s30.833 -25.5 50.5 -33.5s41.834 -11.667 66.501 -11c62.667 0 107.667 15.833 135 47.5s41 81.834 41 150.501v346c0 68.667 -13.667 118.834 -41 150.501
s-72.333 47.5 -135 47.5s-107.667 -17.5 -135 -52.5s-41 -90.833 -41 -167.5v-86c0 -26.667 3.5 -49.334 10.5 -68.001s16.5 -34 28.5 -46s26 -20.667 42 -26s33 -8 51 -8c12.667 0 23.5 1 32.5 3s17.333 5 25 9s15 9 22 15s14.5 13 22.5 21v-169c0 -46 -19.333 -69 -58 -69
c-35.333 0 -53 23 -53 69v37h-108zM279.999 408.999c-7.33301 -6 -17 -12.999 -29 -20.999s-23.667 -12 -35 -12c-15.333 0 -27.833 5.66699 -37.5 17s-14.5 28.666 -14.5 51.999v120c0 46 19.333 69 58 69s58 -23 58 -69v-156z" />
    <glyph glyph-name="colon" unicode=":" horiz-adv-x="222" 
d="M170 0v118h-118v-118h118zM170 278v118h-118v-118h118z" />
    <glyph glyph-name="semicolon" unicode=";" horiz-adv-x="222" 
d="M170 118h-118v-118h45l-49 -124h53l69 124v118zM170 278v118h-118v-118h118z" />
    <glyph glyph-name="less" unicode="&#x3c;" horiz-adv-x="600" 
d="M553 104l-365 149l365 149v104l-506 -211v-84l506 -211v104z" />
    <glyph glyph-name="equal" unicode="=" horiz-adv-x="600" 
d="M553 406h-506v-98h506v98zM553 198h-506v-98h506v98z" />
    <glyph glyph-name="greater" unicode="&#x3e;" horiz-adv-x="600" 
d="M47 0l506 211v84l-506 211v-104l365 -149l-365 -149v-104z" />
    <glyph glyph-name="question" unicode="?" horiz-adv-x="389" 
d="M233 212l-0.00585938 54.002c0 22 1.83301 41.667 5.5 59s8.33398 33 14.001 47s12.167 26.667 19.5 38s15 22.333 23 33l23 32c7.33301 10.667 13.833 22 19.5 34s10.334 25.167 14.001 39.5s5.5 30.833 5.5 49.5c0 19.333 -4 37.166 -12 53.499s-18.667 30.5 -32 42.5
s-28.666 21.333 -45.999 28s-35.333 10 -54 10c-48 0 -86.333 -11 -115 -33s-50.667 -55 -66 -99l96 -36c2 8.66699 5 17.5 9 26.5s8.83301 17.167 14.5 24.5s12.334 13.333 20.001 18s16.834 7 27.501 7c12.667 0 22.834 -4.5 30.501 -13.5s11.5 -19.5 11.5 -31.5
c0 -18.667 -5.33301 -38.334 -16 -59.001l-36 -67c-13.333 -24 -25.333 -50.167 -36 -78.5s-16 -59.833 -16 -94.5v-84h96zM241.994 0.00195312v118h-118v-118h118z" />
    <glyph glyph-name="at" unicode="@" horiz-adv-x="800" 
d="M369 233c-23.333 0 -42.167 8.50195 -56.5 25.502s-21.5 38.167 -21.5 63.5c0 16.667 3 33.667 9 51s14.5 33.333 25.5 48s24.167 26.667 39.5 36s32 14 50 14c22.667 0 41.167 -8.33301 55.5 -25s21.5 -37.334 21.5 -62.001c0 -17.333 -3 -34.833 -9 -52.5
s-14.333 -33.834 -25 -48.501s-23.667 -26.667 -39 -36s-32 -14 -50 -14zM522.999 496.002c-13.333 22 -29.9971 38.335 -49.9971 49.002s-42.333 16 -67 16c-32.667 0 -62.167 -7.16699 -88.5 -21.5s-48.833 -33.333 -67.5 -57s-33.167 -50.667 -43.5 -81
s-15.5 -61.166 -15.5 -92.499c0 -22.667 4.16699 -44.167 12.5 -64.5s19.5 -38 33.5 -53s30.333 -26.833 49 -35.5s38.667 -13 60 -13c20 0 39.667 5.33301 59 16s35.666 23.667 48.999 39l2 -1c1.33301 -18.667 7.33301 -32.334 18 -41.001s23.667 -13 39 -13
c18 0 41 5.33301 69 16s55.167 27.5 81.5 50.5s49 52.5 68 88.5s28.5 79.667 28.5 131c0 45.333 -9.5 86.666 -28.5 123.999s-44.5 69.166 -76.5 95.499s-68.667 46.833 -110 61.5s-84.333 22 -129 22c-52 0 -100.833 -9.16699 -146.5 -27.5s-85.5 -44 -119.5 -77
s-60.833 -72.167 -80.5 -117.5s-29.5 -95 -29.5 -149c0 -56 9.83301 -106.667 29.5 -152s46.834 -84.333 81.501 -117s75 -57.834 121 -75.501s95.667 -26.5 149 -26.5c62.667 0 120.167 13.833 172.5 41.5s95.5 67.5 129.5 119.5h-83
c-26.667 -26.667 -58.334 -47.167 -95.001 -61.5s-76 -21.5 -118 -21.5c-43.333 0 -83 7.16699 -119 21.5s-67.333 34.333 -94 60s-47.334 56.334 -62.001 92.001s-22 74.834 -22 117.501c0 42 6.83301 81 20.5 117s33 67.167 58 93.5s55 47 90 62s73.833 22.5 116.5 22.5
c37.333 0 72.166 -5.33301 104.499 -16s60.5 -26.334 84.5 -47.001s43 -46.334 57 -77.001s21 -66 21 -106c0 -26.667 -3.5 -51.167 -10.5 -73.5s-16 -41.666 -27 -57.999s-23.333 -29 -37 -38s-27.5 -13.5 -41.5 -13.5c-6.66699 0 -11 2.66699 -13 8s-3 11.666 -3 18.999
c0 6.66699 0.833008 13.334 2.5 20.001s3.16699 13 4.5 19l63 257h-81z" />
    <glyph glyph-name="A" unicode="A" 
d="M221 578h2l49 -310h-100zM154 160h136l22 -160h120l-133 722h-154l-133 -722h120z" />
    <glyph glyph-name="B" unicode="B" horiz-adv-x="500" 
d="M184 324h40c37.333 0 63.666 -9.16699 78.999 -27.5s23 -46.166 23 -83.499c0 -36.667 -6.66699 -64.334 -20 -83.001s-36.666 -28 -69.999 -28h-52v222zM184 620h47c54 0 81 -34 81 -102c0 -30 -8 -52.833 -24 -68.5s-35.667 -23.5 -59 -23.5h-45v194zM60 0
l196.001 -0.00195312c35.333 0 65.333 5.33301 90 16s44.667 25.334 60 44.001s26.5 40.667 33.5 66s10.5 53 10.5 83c0 46.667 -8.66699 83.334 -26 110.001s-42 47 -74 61c14.667 6 27.5 14.333 38.5 25s20 22.667 27 36s12.167 27.833 15.5 43.5s5 31.167 5 46.5
c0 62 -15.333 109.333 -46 142s-79.334 49 -146.001 49h-184v-722z" />
    <glyph glyph-name="C" unicode="C" horiz-adv-x="500" 
d="M434 481l0.000976562 53.0029c0 26.667 -3.83301 52 -11.5 76s-19 45 -34 63s-34.167 32.333 -57.5 43s-50.333 16 -81 16c-32.667 0 -60.834 -4.83301 -84.501 -14.5s-43.334 -22.834 -59.001 -39.501s-27.334 -36.334 -35.001 -59.001s-11.5 -46.667 -11.5 -72v-372
c0 -25.333 3.83301 -49.333 11.5 -72s19.334 -42.334 35.001 -59.001s35.334 -29.834 59.001 -39.501s51.834 -14.5 84.501 -14.5c30.667 0 57.667 4.83301 81 14.5s42.5 22.834 57.5 39.501s26.333 36.334 34 59.001s11.5 46.667 11.5 72v83h-124v-87
c0 -23.333 -4.33301 -41.333 -13 -54s-24.334 -19 -47.001 -19c-25.333 0 -42.666 6.5 -51.999 19.5s-14 33.167 -14 60.5v366c0 27.333 4.66699 47.5 14 60.5s26.666 19.5 51.999 19.5c16 0 30 -6.83301 42 -20.5s18 -35.834 18 -66.501v-56h124z" />
    <glyph glyph-name="D" unicode="D" horiz-adv-x="500" 
d="M184 620h43c33.333 0 56.5 -7.33301 69.5 -22s19.5 -41 19.5 -79v-316c0 -38 -6.5 -64.333 -19.5 -79s-36.167 -22 -69.5 -22h-43v518zM60 0h184c64.667 0 113.5 17.667 146.5 53s49.5 90.333 49.5 165v286c0 74.667 -16.5 129.667 -49.5 165s-81.833 53 -146.5 53h-184
v-722z" />
    <glyph glyph-name="E" unicode="E" 
d="M406 0v108h-222v212h160v108h-160v186h208v108h-332v-722h346z" />
    <glyph glyph-name="F" unicode="F" 
d="M184 0v320h166v108h-166v186h222v108h-346v-722h124z" />
    <glyph glyph-name="G" unicode="G" horiz-adv-x="500" 
d="M231 268l79.001 0.00292969v-70c0 -36 -5 -61.667 -15 -77s-27.667 -23 -53 -23c-21.333 0 -36.333 6.83301 -45 20.5s-13 32.167 -13 55.5v371c0 30.667 5.33301 51.5 16 62.5s23.667 16.5 39 16.5c12 0 22.5 -2 31.5 -6s16.5 -11.167 22.5 -21.5s10.333 -24.333 13 -42
s4 -39.834 4 -66.501h118v46c0 26.667 -3.83301 52 -11.5 76s-19.334 45 -35.001 63s-35.167 32.333 -58.5 43s-50.333 16 -81 16s-57.334 -4.83301 -80.001 -14.5s-41.5 -22.834 -56.5 -39.501s-26.333 -36.334 -34 -59.001s-11.5 -46.667 -11.5 -72v-372
c0 -58 15.333 -103.333 46 -136s70.667 -49 120 -49c29.333 0 52.833 5.16699 70.5 15.5s35.834 26.5 54.501 48.5l23 -54h60v366h-203v-98z" />
    <glyph glyph-name="H" unicode="H" horiz-adv-x="500" 
d="M184 0v320h132v-320h124v722h-124v-294h-132v294h-124v-722h124z" />
    <glyph glyph-name="I" unicode="I" horiz-adv-x="278" 
d="M201 0v722h-124v-722h124z" />
    <glyph glyph-name="J" unicode="J" horiz-adv-x="278" 
d="M3 -10l41 -0.000976562c34 0 62.333 3.66699 85 11s40.5 17.833 53.5 31.5s22.167 29.834 27.5 48.501s8 39.667 8 63v578h-124v-564c0 -20 -4.83301 -35 -14.5 -45s-26.5 -15 -50.5 -15h-26v-108z" />
    <glyph glyph-name="K" unicode="K" 
d="M178 0v256l44 80h2l101 -336h126l-151 453l134 269h-124l-130 -267h-2v267h-124v-722h124z" />
    <glyph glyph-name="L" unicode="L" horiz-adv-x="389" 
d="M373 0v108h-195v614h-124v-722h319z" />
    <glyph glyph-name="M" unicode="M" horiz-adv-x="611" 
d="M394 722l-88 -422h-2l-88 422h-163v-722h108v564h2l112 -564h60l112 564h2v-564h108v722h-163z" />
    <glyph glyph-name="N" unicode="N" horiz-adv-x="500" 
d="M172 0v451h2l158 -451h108v722h-112v-413h-2l-151 413h-115v-722h112z" />
    <glyph glyph-name="O" unicode="O" horiz-adv-x="500" 
d="M60 175c0 -25.333 3.83301 -49.333 11.5 -72s19.334 -42.334 35.001 -59.001s35.334 -29.834 59.001 -39.501s51.834 -14.5 84.501 -14.5s60.834 4.83301 84.501 14.5s43.334 22.834 59.001 39.501s27.334 36.334 35.001 59.001s11.5 46.667 11.5 72v372
c0 25.333 -3.83301 49.333 -11.5 72s-19.334 42.334 -35.001 59.001s-35.334 29.834 -59.001 39.501s-51.834 14.5 -84.501 14.5s-60.834 -4.83301 -84.501 -14.5s-43.334 -22.834 -59.001 -39.501s-27.334 -36.334 -35.001 -59.001s-11.5 -46.667 -11.5 -72v-372zM184 544
c0 27.333 4.66699 47.5 14 60.5s26.666 19.5 51.999 19.5s42.666 -6.5 51.999 -19.5s14 -33.167 14 -60.5v-366c0 -27.333 -4.66699 -47.5 -14 -60.5s-26.666 -19.5 -51.999 -19.5s-42.666 6.5 -51.999 19.5s-14 33.167 -14 60.5v366z" />
    <glyph glyph-name="P" unicode="P" horiz-adv-x="500" 
d="M184 620l48 -0.00292969c20 0 36.833 -1.83301 50.5 -5.5s24.667 -9.66699 33 -18s14.166 -19.666 17.499 -33.999s5 -32.166 5 -53.499s-1.66699 -39.166 -5 -53.499s-9.16602 -25.833 -17.499 -34.5s-19.333 -14.667 -33 -18s-30.5 -5 -50.5 -5h-48v222z
M184 -0.00292969l0.000976562 295.999h54c38 0 71.167 3.83301 99.5 11.5s51.666 20 69.999 37s32 39 41 66s13.5 59.833 13.5 98.5c0 76.667 -18.167 131.334 -54.5 164.001s-92.833 49 -169.5 49h-178v-722h124z" />
    <glyph glyph-name="Q" unicode="Q" horiz-adv-x="500" 
d="M477 54c-6.66699 0.666992 -14.4971 2.50195 -23.4971 5.50195s-20.5 10.5 -34.5 22.5c14 26.667 21 57.667 21 93v372c0 25.333 -3.83301 49.333 -11.5 72s-19.334 42.334 -35.001 59.001s-35.334 29.834 -59.001 39.501s-51.834 14.5 -84.501 14.5
s-60.834 -4.83301 -84.501 -14.5s-43.334 -22.834 -59.001 -39.501s-27.334 -36.334 -35.001 -59.001s-11.5 -46.667 -11.5 -72v-372c0 -25.333 3.83301 -49.333 11.5 -72s19.334 -42.334 35.001 -59.001s35.334 -29.834 59.001 -39.501s51.834 -14.5 84.501 -14.5
c40 0 73.667 7.66699 101 23c10.667 -14.667 21.167 -26.5 31.5 -35.5s20.5 -15.833 30.5 -20.5s20.333 -7.66699 31 -9s21.667 -2 33 -2v108zM259.003 148.002l14.0029 -11.998c5.33301 -4.66699 11.666 -13.667 18.999 -27c-9.33301 -7.33301 -23.333 -11 -42 -11
c-25.333 0 -42.666 6.5 -51.999 19.5s-14 33.167 -14 60.5v366c0 27.333 4.66699 47.5 14 60.5s26.666 19.5 51.999 19.5s42.666 -6.5 51.999 -19.5s14 -33.167 14 -60.5v-330c-12 13.333 -22.833 23.166 -32.5 29.499s-17.834 11.166 -24.501 14.499v-110z" />
    <glyph glyph-name="R" unicode="R" horiz-adv-x="500" 
d="M184 620h44c33.333 0 57 -7.83301 71 -23.5s21 -44.834 21 -87.501c0 -21.333 -1.66699 -39.166 -5 -53.499s-8.66602 -25.833 -15.999 -34.5s-16.833 -14.667 -28.5 -18s-25.834 -5 -42.501 -5h-44v222zM184 296c11.333 0 22.833 0.166016 34.5 0.499023
s21.5 1.16602 29.5 2.49902l88 -299h126l-105 327c10.667 4.66699 21.167 11.334 31.5 20.001s19.666 20.167 27.999 34.5s15 31.833 20 52.5s7.5 45.667 7.5 75c0 76.667 -17.667 131.334 -53 164.001s-87.666 49 -156.999 49h-174v-722h124v296z" />
    <glyph glyph-name="S" unicode="S" 
d="M404 557c-2.66699 25.333 -8.50195 48.6631 -17.502 69.9961s-20.667 39.833 -35 55.5s-31.5 27.834 -51.5 36.501s-42.667 13 -68 13c-61.333 0 -108.666 -15.5 -141.999 -46.5s-50 -75.5 -50 -133.5c0 -34.667 6.16699 -65 18.5 -91s27.833 -49.333 46.5 -70
s39 -39.667 61 -57s42.333 -34.666 61 -51.999s34.167 -35.333 46.5 -54s18.5 -40 18.5 -64c0 -21.333 -6.66699 -37.666 -20 -48.999s-30.666 -17 -51.999 -17c-20 0 -36.667 9 -50 27s-21.333 45.333 -24 82l-118 -17c1.33301 -27.333 6.33301 -53 15 -77
s20.834 -45.167 36.501 -63.5s34.834 -32.833 57.501 -43.5s48.334 -16 77.001 -16s55.167 4 79.5 12s45 19.833 62 35.5s30.333 35 40 58s14.5 49.5 14.5 79.5c0 32.667 -6.16699 61.834 -18.5 87.501s-27.833 49.167 -46.5 70.5s-39 40.833 -61 58.5
s-42.333 35.167 -61 52.5s-34.167 34.666 -46.5 51.999s-18.5 36.333 -18.5 57c0 22.667 5.33301 40.167 16 52.5s26 18.5 46 18.5c6.66699 0 13.667 -1.33301 21 -4s14.166 -7 20.499 -13s11.666 -14.167 15.999 -24.5s7.16602 -23.166 8.49902 -38.499z" />
    <glyph glyph-name="T" unicode="T" horiz-adv-x="389" 
d="M132 0h124v614h120v108h-364v-108h120v-614z" />
    <glyph glyph-name="U" unicode="U" horiz-adv-x="500" 
d="M60 182c0 -62.667 16.833 -110.334 50.5 -143.001s80.167 -49 139.5 -49s105.833 16.333 139.5 49s50.5 80.334 50.5 143.001v540h-124v-545c0 -52.667 -22 -79 -66 -79s-66 26.333 -66 79v545h-124v-540z" />
    <glyph glyph-name="V" unicode="V" 
d="M223 221h-2l-90 501h-122l151 -722h124l151 722h-122z" />
    <glyph glyph-name="W" unicode="W" horiz-adv-x="667" 
d="M194 262h-2l-76 460h-116l137 -722h104l84 477h2l90 -477h104l127 722h-116l-69 -460h-2l-84 460h-102z" />
    <glyph glyph-name="X" unicode="X" 
d="M14 0h122l86 263h2l84 -263h122l-140 378l125 344h-122l-69 -229h-2l-76 229h-122l132 -344z" />
    <glyph glyph-name="Y" unicode="Y" 
d="M284 300l150 422h-126l-83 -275h-2l-87 275h-126l150 -422v-300h124v300z" />
    <glyph glyph-name="Z" unicode="Z" 
d="M275 614l-231 -496v-118h356v108h-228l228 496v118h-328v-108h203z" />
    <glyph glyph-name="bracketleft" unicode="[" horiz-adv-x="278" 
d="M250 722h-214v-798h214v48h-118v702h118v48z" />
    <glyph glyph-name="backslash" unicode="\" horiz-adv-x="278" 
d="M77 732h-98l222 -742h98z" />
    <glyph glyph-name="bracketright" unicode="]" horiz-adv-x="278" 
d="M28 674h118v-702h-118v-48h214v798h-214v-48z" />
    <glyph glyph-name="asciicircum" unicode="^" horiz-adv-x="600" 
d="M163 302l136 302l136 -302h109l-190 420h-108l-190 -420h107z" />
    <glyph glyph-name="underscore" unicode="_" horiz-adv-x="500" 
d="M500 -125v50h-500v-50h500z" />
    <glyph glyph-name="grave" unicode="`" horiz-adv-x="222" 
d="M99 602h83l-79 144h-135z" />
    <glyph glyph-name="a" unicode="a" 
d="M154 380c1.33301 23.333 6.00195 41.8301 14.002 55.4971s24.667 20.5 50 20.5c36.667 0 55 -23 55 -69v-32c-40 -15.333 -75 -31.166 -105 -47.499s-55 -34.166 -75 -53.499s-34.833 -40.666 -44.5 -63.999s-14.5 -49.666 -14.5 -78.999c0 -34.667 9.5 -63.5 28.5 -86.5
s47.5 -34.5 85.5 -34.5c27.333 0 50.666 4.33301 69.999 13s39.666 21.667 60.999 39c0.666992 -6.66699 1.66699 -13.5 3 -20.5s2.33301 -14.167 3 -21.5h107c-1.33301 9.33301 -2.83301 19 -4.5 29s-2.5 19.333 -2.5 28v345c0 49.333 -14.167 86 -42.5 110
s-68.5 36 -120.5 36c-52.667 0 -95 -14.333 -127 -43s-49.667 -70.334 -53 -125.001h112zM273.002 131.997c-9.33301 -13.333 -20.333 -25 -33 -35s-26.667 -15 -42 -15c-17.333 0 -30.333 3.83301 -39 11.5s-13 20.167 -13 37.5c0 12 1.83301 23.333 5.5 34
s10.167 21.667 19.5 33s22.333 23 39 35s37.667 25.333 63 40v-141z" />
    <glyph glyph-name="b" unicode="b" 
d="M160 0v56.001h2c18.667 -23.333 36.334 -40.166 53.001 -50.499s39 -15.5 67 -15.5c35.333 0 63.166 12.667 83.499 38s30.5 62.666 30.5 111.999v258c0 49.333 -10.167 86.666 -30.5 111.999s-48.166 38 -83.499 38c-12 0 -22.833 -1.16699 -32.5 -3.5
s-18.834 -6 -27.501 -11s-17.5 -11 -26.5 -18l-29.5 -23.5v230h-112v-722h106zM166 428.001c11.333 8 22 14.667 32 20s20.667 8 32 8c7.33301 0 14.333 -1.16699 21 -3.5s12.5 -6.83301 17.5 -13.5s8.83301 -15.5 11.5 -26.5s4 -25.5 4 -43.5v-200
c0 -18 -1.33301 -32.5 -4 -43.5s-6.5 -19.833 -11.5 -26.5s-10.833 -11.167 -17.5 -13.5s-13.667 -3.5 -21 -3.5c-11.333 0 -22 2.66699 -32 8s-20.667 12 -32 20v318z" />
    <glyph glyph-name="c" unicode="c" 
d="M396 354c-0.666992 28.667 -4.16699 55.002 -10.5 79.002s-16.333 44.5 -30 61.5s-31.5 30.167 -53.5 39.5s-48.667 14 -80 14c-32 0 -59 -4.83301 -81 -14.5s-40 -23.334 -54 -41.001s-24 -38.834 -30 -63.501s-9 -51.667 -9 -81v-158c0 -29.333 3 -56.333 9 -81
s16 -45.834 30 -63.501s32 -31.334 54 -41.001s49 -14.5 81 -14.5s59 4.83301 81 14.5s40 23.334 54 41.001s24 38.834 30 63.501s9 51.667 9 81v14h-112v-34c0 -31.333 -5.33301 -53.833 -16 -67.5s-26 -20.5 -46 -20.5s-35.333 6.83301 -46 20.5s-16 36.167 -16 67.5v198
c0 31.333 5.33301 53.833 16 67.5s26 20.5 46 20.5s35.333 -6.83301 46 -20.5s16 -36.167 16 -67.5v-14h112z" />
    <glyph glyph-name="d" unicode="d" 
d="M390 0l0.000976562 721.999h-112v-230l-30 23.5c-8.66699 7 -17.334 13 -26.001 18s-17.834 8.66699 -27.501 11s-20.5 3.5 -32.5 3.5c-35.333 0 -63.166 -12.667 -83.499 -38s-30.5 -62.666 -30.5 -111.999v-258c0 -49.333 10.167 -86.666 30.5 -111.999
s48.166 -38 83.499 -38c28 0 50.333 5.16699 67 15.5s34.334 27.166 53.001 50.499h2v-56h106zM278.001 109.999c-11.333 -8 -22 -14.665 -32 -19.998s-20.667 -8 -32 -8c-15.333 0 -28.166 5.66699 -38.499 17s-15.5 34.666 -15.5 69.999v200
c0 35.333 5.16699 58.666 15.5 69.999s23.166 17 38.499 17c11.333 0 22 -2.66699 32 -8s20.667 -12 32 -20v-318z" />
    <glyph glyph-name="e" unicode="e" 
d="M160 340v28c0 31.333 5.33301 53.833 16 67.5s26 20.5 46 20.5s35.333 -6.83301 46 -20.5s16 -36.167 16 -67.5v-28h-124zM396 348c0 29.333 -3 56.335 -9 81.002s-16 45.834 -30 63.501s-32 31.334 -54 41.001s-49 14.5 -81 14.5s-59 -4.83301 -81 -14.5
s-40 -23.334 -54 -41.001s-24 -38.834 -30 -63.501s-9 -51.667 -9 -81v-158c0 -29.333 3 -56.333 9 -81s16 -45.834 30 -63.501s32 -31.334 54 -41.001s49 -14.5 81 -14.5c31.333 0 57.833 4.66699 79.5 14s39.5 22.5 53.5 39.5s24.167 37.167 30.5 60.5
s9.83301 49.333 10.5 78h-112v-12c0 -31.333 -5.33301 -53.833 -16 -67.5s-26 -20.5 -46 -20.5s-35.333 6.83301 -46 20.5s-16 36.167 -16 67.5v78h236v100z" />
    <glyph glyph-name="f" unicode="f" horiz-adv-x="278" 
d="M76 0l112 0.000976562v446h64v92h-64v66c0 13.333 2.83301 22.666 8.5 27.999s15.167 8 28.5 8h32v92h-56c-40 0 -70.833 -10.167 -92.5 -30.5s-32.5 -52.5 -32.5 -96.5v-67h-66v-92h66v-446z" />
    <glyph glyph-name="g" unicode="g" 
d="M426 548c-12 0 -22 -0.999023 -30 -2.99902s-15.333 -5.16699 -22 -9.5s-13.167 -10.333 -19.5 -18s-13.166 -16.834 -20.499 -27.501c-17.333 20.667 -36.333 35.5 -57 44.5s-43 13.5 -67 13.5c-31.333 0 -58 -3.33301 -80 -10s-40 -17.834 -54 -33.501
s-24.167 -36.167 -30.5 -61.5s-9.5 -56.333 -9.5 -93c0 -31.333 1.16699 -57.166 3.5 -77.499s6.16602 -37.5 11.499 -51.5s12.666 -25.667 21.999 -35s21 -19 35 -29c-7.33301 -4 -15 -9.16699 -23 -15.5s-15.333 -13.166 -22 -20.499s-12.167 -15.333 -16.5 -24
s-6.5 -17.667 -6.5 -27c0 -17.333 4.66699 -31.5 14 -42.5s21.666 -19.5 36.999 -25.5v-2c-19.333 -4.66699 -36.333 -14.5 -51 -29.5s-22 -33.167 -22 -54.5c0 -28 15.5 -49.333 46.5 -64s74.833 -22 131.5 -22c72.667 0 129.167 9.83301 169.5 29.5s60.5 52.5 60.5 98.5
c0 31.333 -7.16699 55.333 -21.5 72s-32.166 28.834 -53.499 36.501s-44.333 12 -69 13s-47.667 2 -69 3s-39.166 3.33301 -53.499 7s-21.5 11.5 -21.5 23.5c0 6.66699 2.16699 12.167 6.5 16.5s9.5 7.16602 15.5 8.49902h36c28.667 0 53.667 3.5 75 10.5s39 19 53 36
s24.5 39.167 31.5 66.5s10.5 61.666 10.5 102.999c0 11.333 -1 24.833 -3 40.5s-5 30.5 -9 44.5c8 6.66699 16.5 11.167 25.5 13.5s18.5 3.5 28.5 3.5h9c2.66699 0 5.66699 -0.333008 9 -1v93zM231 -89.999c-37.333 0 -62.5 3.16699 -75.5 9.5s-19.5 16.5 -19.5 30.5
s6.5 24.167 19.5 30.5s38.167 9.5 75.5 9.5s62.5 -3.16699 75.5 -9.5s19.5 -16.5 19.5 -30.5s-6.5 -24.167 -19.5 -30.5s-38.167 -9.5 -75.5 -9.5zM198 230.001c-9.33301 0 -17.333 1.66699 -24 5s-12.5 9.16602 -17.5 17.499s-8.66699 19.833 -11 34.5
s-3.5 33.334 -3.5 56.001s1.16699 41.334 3.5 56.001s6 26.167 11 34.5s10.833 14.166 17.5 17.499s14.667 5 24 5c10.667 0 19.667 -1.66699 27 -5s13.166 -9.16602 17.499 -17.499s7.33301 -19.833 9 -34.5s2.5 -33.334 2.5 -56.001s-0.833008 -41.334 -2.5 -56.001
s-4.66699 -26.167 -9 -34.5s-10.166 -14.166 -17.499 -17.499s-16.333 -5 -27 -5z" />
    <glyph glyph-name="h" unicode="h" 
d="M166 0l0.000976562 421.999c13.333 9.33301 25.666 17.333 36.999 24s23 10 35 10s21.667 -3.16699 29 -9.5s11 -16.166 11 -29.499v-417h112v435c0 35.333 -8.16699 63 -24.5 83s-39.5 30 -69.5 30c-16 0 -30 -1.5 -42 -4.5s-22.667 -7 -32 -12s-18.5 -11.333 -27.5 -19
l-28.5 -24.5v234h-112v-722h112z" />
    <glyph glyph-name="i" unicode="i" horiz-adv-x="222" 
d="M167 0v538h-112v-538h112zM167 620v102h-112v-102h112z" />
    <glyph glyph-name="j" unicode="j" horiz-adv-x="222" 
d="M0 -170h42.999c17.333 0 33.833 2.16699 49.5 6.5s29.5 11.833 41.5 22.5s21.5 25 28.5 43s10.5 40.333 10.5 67v568h-112v-563c0 -12 -3.16699 -22 -9.5 -30s-17.166 -12 -32.499 -12h-19v-102zM172.999 620v102h-112v-102h112z" />
    <glyph glyph-name="k" unicode="k" 
d="M411 538h-120l-123 -190h-2v374h-112v-722h112v188l53 79h2l90 -267h113l-130 368z" />
    <glyph glyph-name="l" unicode="l" horiz-adv-x="222" 
d="M167 0v722h-112v-722h112z" />
    <glyph glyph-name="m" unicode="m" horiz-adv-x="667" 
d="M389 0v421.998c12.667 9.33301 24.667 17.333 36 24s23 10 35 10c11.333 0 20.833 -3.16699 28.5 -9.5s11.5 -16.166 11.5 -29.499v-417h112v435c0 35.333 -8.66699 63 -26 83s-43.666 30 -78.999 30c-10 0 -19.667 -0.833008 -29 -2.5s-18.833 -5 -28.5 -10
s-20 -11.667 -31 -20s-23.167 -18.833 -36.5 -31.5c-12 22 -24.333 38.167 -37 48.5s-33 15.5 -61 15.5c-13.333 0 -25 -1.5 -35 -4.5s-19.667 -7.16699 -29 -12.5s-18.666 -12 -27.999 -20l-32 -27v54h-106v-538h112v422c13.333 9.33301 25.666 17.333 36.999 24
s23 10 35 10c11.333 0 20.666 -3.16699 27.999 -9.5s11 -16.166 11 -29.499v-417h112z" />
    <glyph glyph-name="n" unicode="n" 
d="M166 0l0.000976562 421.999c13.333 9.33301 25.666 17.333 36.999 24s23 10 35 10s21.667 -3.16699 29 -9.5s11 -16.166 11 -29.499v-417h112v435c0 35.333 -8.16699 63 -24.5 83s-39.5 30 -69.5 30c-16 0 -30 -1.5 -42 -4.5s-23 -7.16699 -33 -12.5s-19.667 -12 -29 -20
l-32 -27v54h-106v-538h112z" />
    <glyph glyph-name="o" unicode="o" 
d="M284 170c0 -31.333 -5.33301 -53.833 -16 -67.5s-26 -20.5 -46 -20.5s-35.333 6.83301 -46 20.5s-16 36.167 -16 67.5v198c0 31.333 5.33301 53.833 16 67.5s26 20.5 46 20.5s35.333 -6.83301 46 -20.5s16 -36.167 16 -67.5v-198zM48 190c0 -29.333 3 -56.333 9 -81
s16 -45.834 30 -63.501s32 -31.334 54 -41.001s49 -14.5 81 -14.5s59 4.83301 81 14.5s40 23.334 54 41.001s24 38.834 30 63.501s9 51.667 9 81v158c0 29.333 -3 56.333 -9 81s-16 45.834 -30 63.501s-32 31.334 -54 41.001s-49 14.5 -81 14.5s-59 -4.83301 -81 -14.5
s-40 -23.334 -54 -41.001s-24 -38.834 -30 -63.501s-9 -51.667 -9 -81v-158z" />
    <glyph glyph-name="p" unicode="p" 
d="M54 538v-707.999h112v216c10.667 -9.33301 20.5 -17.333 29.5 -24s17.833 -12.5 26.5 -17.5s17.834 -8.66699 27.501 -11s20.5 -3.5 32.5 -3.5c35.333 0 63.166 12.667 83.499 38s30.5 62.666 30.5 111.999v258c0 49.333 -10.167 86.666 -30.5 111.999
s-48.166 38 -83.499 38c-28 0 -50.333 -5.16699 -67 -15.5s-34.334 -27.166 -53.001 -50.499h-2v56h-106zM166 428.001c11.333 8 22 14.667 32 20s20.667 8 32 8c7.33301 0 14.333 -1.16699 21 -3.5s12.5 -6.83301 17.5 -13.5s8.83301 -15.5 11.5 -26.5s4 -25.5 4 -43.5
v-200c0 -18 -1.33301 -32.5 -4 -43.5s-6.5 -19.833 -11.5 -26.5s-10.833 -11.167 -17.5 -13.5s-13.667 -3.5 -21 -3.5c-11.333 0 -22 2.66699 -32 8s-20.667 12 -32 20v318z" />
    <glyph glyph-name="q" unicode="q" 
d="M284 538l-0.000976562 -56.001h-2c-18.667 23.333 -36.334 40.166 -53.001 50.499s-39 15.5 -67 15.5c-35.333 0 -63.166 -12.667 -83.499 -38s-30.5 -62.666 -30.5 -111.999v-258c0 -49.333 10.167 -86.666 30.5 -111.999s48.166 -38 83.499 -38
c12 0 22.833 1.16699 32.5 3.5s18.834 6 27.501 11s17.334 10.833 26.001 17.5l30 24v-216h112v708h-106zM277.999 109.999c-11.333 -8 -22 -14.665 -32 -19.998s-20.667 -8 -32 -8c-15.333 0 -28.166 5.66699 -38.499 17s-15.5 34.666 -15.5 69.999v200
c0 35.333 5.16699 58.666 15.5 69.999s23.166 17 38.499 17c11.333 0 22 -2.66699 32 -8s20.667 -12 32 -20v-318z" />
    <glyph glyph-name="r" unicode="r" horiz-adv-x="333" 
d="M166 0l-0.000976562 370c0 24 7.66699 42 23 54s32.666 18 51.999 18c16.667 0 30.334 -1.16699 41.001 -3.5s21 -4.83301 31 -7.5v117h-23c-26.667 0 -51.167 -6.33301 -73.5 -19s-40.166 -30.667 -53.499 -54h-2v63h-107v-538h112z" />
    <glyph glyph-name="s" unicode="s" horiz-adv-x="389" 
d="M353 405c-8.66699 42 -27.168 76.333 -55.501 103s-64.5 40 -108.5 40c-21.333 0 -41 -3.5 -59 -10.5s-33.833 -16.833 -47.5 -29.5s-24.334 -27.834 -32.001 -45.501s-11.5 -37.167 -11.5 -58.5c0 -24.667 5.16699 -46.334 15.5 -65.001s23.333 -35.667 39 -51
s32.5 -29.333 50.5 -42l50.5 -37c15.667 -12 28.667 -24.5 39 -37.5s15.5 -27.167 15.5 -42.5s-4.66699 -27 -14 -35s-21.333 -12 -36 -12c-25.333 0 -43.166 8.5 -53.499 25.5s-17.166 36.833 -20.499 59.5l-98 -27c8.66699 -47.333 27 -84.166 55 -110.499
s66.667 -39.5 116 -39.5c22.667 0 43.667 3 63 9s36 15.167 50 27.5s24.833 27.5 32.5 45.5s11.5 39 11.5 63c0 26.667 -5.16699 50.167 -15.5 70.5s-23.333 38.333 -39 54s-32.5 30 -50.5 43l-50.5 37c-15.667 11.667 -28.667 23.334 -39 35.001s-15.5 24.5 -15.5 38.5
s4.5 24.667 13.5 32s20.833 11 35.5 11c34.667 0 56 -22.333 64 -67z" />
    <glyph glyph-name="t" unicode="t" horiz-adv-x="278" 
d="M72 446v-335c0 -41.333 11.333 -71.833 34 -91.5s55 -29.5 97 -29.5c14 0 25 0.5 33 1.5s15.667 2.5 23 4.5v96h-37c-25.333 0 -38 14.667 -38 44v310h75v92h-75v145h-112v-145h-62v-92h62z" />
    <glyph glyph-name="u" unicode="u" 
d="M278 538l-0.000976562 -421.999c-13.333 -9.33301 -25.666 -17.333 -36.999 -24s-23 -10 -35 -10s-21.667 3.16699 -29 9.5s-11 16.166 -11 29.499v417h-112v-435c0 -35.333 8.16699 -63 24.5 -83s39.5 -30 69.5 -30c16 0 30 1.5 42 4.5s23 7.16699 33 12.5
s19.667 12 29 20l32 27v-54h106v538h-112z" />
    <glyph glyph-name="v" unicode="v" horiz-adv-x="389" 
d="M195 178h-2l-69 360h-114l130 -538h109l130 538h-114z" />
    <glyph glyph-name="w" unicode="w" horiz-adv-x="556" 
d="M165 202h-2l-49 336h-108l104 -538h90l73 340h2l61 -340h90l124 538h-108l-61 -336h-2l-60 335h-83z" />
    <glyph glyph-name="x" unicode="x" horiz-adv-x="389" 
d="M12 0h116l65 182h2l65 -182h116l-122 287l116 251h-116l-60 -150l-57 150h-116l111 -253z" />
    <glyph glyph-name="y" unicode="y" horiz-adv-x="389" 
d="M198 194l-2 -0.000976562l-72 344h-114l117 -457c3.33301 -13.333 6.16602 -25.666 8.49902 -36.999s3.5 -22.666 3.5 -33.999c0 -28.667 -5.33301 -50.334 -16 -65.001s-30 -22 -58 -22h-27v-92h47c20.667 0 39.167 2.16699 55.5 6.5s30.833 11.5 43.5 21.5
s23.334 23.167 32.001 39.5s16 36.833 22 61.5l141 578h-113z" />
    <glyph glyph-name="z" unicode="z" horiz-adv-x="389" 
d="M235 446l-205 -354v-92h329v92h-209l209 354v92h-315v-92h191z" />
    <glyph glyph-name="braceleft" unicode="{" horiz-adv-x="278" 
d="M0 296c14.667 0 27.667 -6.33301 39 -19s17 -33 17 -61v-206c0 -32 7.33301 -56 22 -72s42 -24 82 -24h110v48h-82c-13.333 0 -22.666 4.5 -27.999 13.5s-8 21.167 -8 36.5v194c0 22 -2.83301 40.167 -8.5 54.5s-12.5 26 -20.5 35s-16.333 15.5 -25 19.5
s-16 6.66699 -22 8v3c6 0.666992 13.333 3.16699 22 7.5s17 11 25 20s14.833 20.667 20.5 35s8.5 31.5 8.5 51.5v194c0 15.333 2.66699 27.5 8 36.5s14.666 13.5 27.999 13.5h82v48h-110c-40 0 -67.333 -8 -82 -24s-22 -40 -22 -72v-202c0 -28 -5.66699 -48.333 -17 -61
s-24.333 -19 -39 -19v-58z" />
    <glyph glyph-name="bar" unicode="|" horiz-adv-x="222" 
d="M62 -10h98v742h-98v-742z" />
    <glyph glyph-name="braceright" unicode="}" horiz-adv-x="278" 
d="M278 350c-14.667 0 -27.667 6.33301 -39 19s-17 33 -17 61v206c0 32 -7.33301 56 -22 72s-42 24 -82 24h-110v-48h82c13.333 0 22.666 -4.5 27.999 -13.5s8 -21.167 8 -36.5v-194c0 -22 2.83301 -40.167 8.5 -54.5s12.5 -26 20.5 -35s16.333 -15.667 25 -20
s16 -6.83301 22 -7.5v-3c-6 -0.666992 -13.333 -3.16699 -22 -7.5s-17 -11 -25 -20s-14.833 -20.667 -20.5 -35s-8.5 -31.5 -8.5 -51.5v-194c0 -15.333 -2.66699 -27.5 -8 -36.5s-14.666 -13.5 -27.999 -13.5h-82v-48h110c40 0 67.333 8 82 24s22 40 22 72v202
c0 28 5.66699 48.333 17 61s24.333 19 39 19v58z" />
    <glyph glyph-name="asciitilde" unicode="~" horiz-adv-x="600" 
d="M495 335c-11.333 -15.333 -23.8311 -29.834 -37.498 -43.501s-30.5 -20.5 -50.5 -20.5c-17.333 0 -34 3.33301 -50 10l-52 22c-19.333 8.66699 -38.333 16.167 -57 22.5s-36.667 9.5 -54 9.5c-16.667 0 -31.667 -2.5 -45 -7.5s-25.166 -11.333 -35.499 -19
s-19.833 -16 -28.5 -25s-16.667 -17.833 -24 -26.5l44 -86c8 15.333 18.5 29.833 31.5 43.5s30.5 20.5 52.5 20.5c23.333 0 44.833 -3.16699 64.5 -9.5s36.5 -13.5 50.5 -21.5c16.667 -9.33301 33.167 -17.166 49.5 -23.499s33.833 -9.5 52.5 -9.5
c15.333 0 29.166 2.5 41.499 7.5s23.666 11.333 33.999 19s20.166 16 29.499 25l28 26.5z" />
    <glyph glyph-name="exclamdown" unicode="&#xa1;" horiz-adv-x="278" 
d="M180 326h-82l-22 -510h126zM80 538v-118h118v118h-118z" />
    <glyph glyph-name="cent" unicode="&#xa2;" 
d="M158 148h-2c-1.33301 4.66699 -2.66602 9.66699 -3.99902 15s-2 11 -2 17v198c0 31.333 6.83301 53.833 20.5 67.5s31.167 20.5 52.5 20.5c7.33301 0 12.666 -0.333008 15.999 -1zM401 364c-0.666992 39.333 -6.99609 73.5 -18.9961 102.5s-31.667 51.5 -59 67.5l41 150
h-74l-35 -128c-5.33301 0.666992 -10.5 1.16699 -15.5 1.5s-10.5 0.5 -16.5 0.5c-34 0 -62.667 -4.83301 -86 -14.5s-42.333 -23.334 -57 -41.001s-25.334 -38.834 -32.001 -63.501s-10 -51.667 -10 -81v-158c0 -38.667 5.66699 -72.667 17 -102s30.333 -52.333 57 -69
l-40 -145h75l33 120c11.333 -2.66699 25.666 -4 42.999 -4c34 0 62.667 4.83301 86 14.5s42.166 23.334 56.499 41.001s24.666 38.834 30.999 63.501s9.5 51.667 9.5 81v14h-112v-34c0 -31.333 -6.5 -53.833 -19.5 -67.5s-30.167 -20.5 -51.5 -20.5
c-13.333 0 -24 2.66699 -32 8l91 337c10 -14 15 -33.667 15 -59v-14h104z" />
    <glyph glyph-name="sterling" unicode="&#xa3;" 
d="M35 -10c20.667 2 39.8389 7.50293 57.5059 16.5029s35.167 19.5 52.5 31.5c17.333 -14 36.666 -25.5 57.999 -34.5s44.666 -13.5 69.999 -13.5c42.667 0 75.5 13.167 98.5 39.5s34.5 63.166 34.5 110.499v59h-100c0 -14 -0.666992 -27.5 -2 -40.5
s-3.83301 -24.5 -7.5 -34.5s-8.83398 -17.833 -15.501 -23.5s-15.334 -8.5 -26.001 -8.5c-12.667 0 -25 2.16699 -37 6.5s-23 10.166 -33 17.499c8 13.333 14.167 27.333 18.5 42s7.66602 30.167 9.99902 46.5s3.83301 34 4.5 53s1.33398 39.5 2.00098 61.5h90v84h-99
c-5.33301 32 -11.5 61.5 -18.5 88.5s-10.5 55.167 -10.5 84.5c0 42.667 16.667 64 50 64c10.667 0 19.667 -1.66699 27 -5s13.5 -9 18.5 -17s8.66699 -19.167 11 -33.5s4.16602 -32.5 5.49902 -54.5h102c0 69.333 -13.167 120.333 -39.5 153s-66.833 49 -121.5 49
c-56.667 0 -98.334 -14.5 -125.001 -43.5s-40 -69.5 -40 -121.5c0 -20.667 2.83301 -45.5 8.5 -74.5s12.167 -58.833 19.5 -89.5h-63v-84h77c0 -36 -1 -66.833 -3 -92.5s-5.83301 -47.334 -11.5 -65.001s-13.5 -31.5 -23.5 -41.5s-23 -17.667 -39 -23v-107z" />
    <glyph glyph-name="currency" unicode="&#xa4;" 
d="M436 199l-47 46c11.333 16 20.333 34 27 54s10 40.667 10 62s-3.33301 42 -10 62s-15.667 38 -27 54l47 46l-50 53l-48 -48c-16 11.333 -34 20.166 -54 26.499s-40.667 9.5 -62 9.5c-22 0 -43 -3.16699 -63 -9.5s-38 -15.166 -54 -26.499l-47 48l-50 -53l47 -46
c-11.333 -16 -20.333 -34 -27 -54s-10 -40.667 -10 -62s3.33301 -42 10 -62s15.667 -38 27 -54l-47 -46l50 -53l47 48c16 -11.333 34 -20.166 54 -26.499s41 -9.5 63 -9.5c21.333 0 42 3.16699 62 9.5s38 15.166 54 26.499l48 -48zM110 361c0 16.667 3 32 9 46
s14 26.333 24 37s21.833 19 35.5 25s28.167 9 43.5 9s29.833 -3 43.5 -9s25.5 -14.333 35.5 -25s18 -23 24 -37s9 -29.333 9 -46s-3 -32.167 -9 -46.5s-14 -26.666 -24 -36.999s-21.833 -18.5 -35.5 -24.5s-28.167 -9 -43.5 -9s-29.833 3 -43.5 9s-25.5 14.167 -35.5 24.5
s-18 22.666 -24 36.999s-9 29.833 -9 46.5z" />
    <glyph glyph-name="yen" unicode="&#xa5;" 
d="M418 468h-87l91 254h-100l-97 -299h-2l-101 299h-100l91 -254h-87v-84h121l27 -80h-148v-84h148v-220h96v220h148v84h-148l27 80h121v84z" />
    <glyph glyph-name="brokenbar" unicode="&#xa6;" horiz-adv-x="222" 
d="M160 296h-98v-306h98v306zM160 732h-98v-306h98v306z" />
    <glyph glyph-name="section" unicode="&#xa7;" horiz-adv-x="500" 
d="M402 652c-15.333 22 -35.666 40.833 -60.999 56.5s-53.333 23.5 -84 23.5c-48.667 0 -84.834 -11.5 -108.501 -34.5s-35.5 -52.167 -35.5 -87.5c0 -21.333 4.16699 -41 12.5 -59s20.833 -33.333 37.5 -46c-32.667 -3.33301 -59.334 -14.666 -80.001 -33.999
s-31 -46 -31 -80c0 -22 6 -43.667 18 -65s27.167 -42.333 45.5 -63s38.166 -40.667 59.499 -60s41.166 -38.166 59.499 -56.499s33.5 -35.666 45.5 -51.999s18 -31.833 18 -46.5c0 -17.333 -5.33301 -30 -16 -38s-24.667 -12 -42 -12c-20 0 -36.167 6.16699 -48.5 18.5
s-22.5 26.166 -30.5 41.499l-73 -57c25.333 -24.667 50.833 -44.334 76.5 -59.001s56.834 -22 93.501 -22c19.333 0 37 3.33301 53 10s29.833 15.834 41.5 27.501s20.834 25.667 27.501 42s10 34.5 10 54.5c0 25.333 -4.5 45.833 -13.5 61.5s-21.167 31.167 -36.5 46.5
c34.667 1.33301 61.334 13.166 80.001 35.499s28 49.833 28 82.5c0 22.667 -6 44.5 -18 65.5s-27 41.167 -45 60.5s-37.5 38.166 -58.5 56.499l-58.5 52.5c-18 16.667 -33 32.667 -45 48s-18 30.333 -18 45c0 30.667 17.333 46 52 46c16.667 0 31 -5.83301 43 -17.5
s23 -23.167 33 -34.5zM144 399c0 11.333 3.83105 21.168 11.498 29.501s18.5 12.5 32.5 12.5c7.33301 0 16.5 -3.5 27.5 -10.5s22.833 -16.167 35.5 -27.5s25.167 -23.666 37.5 -36.999s23.5 -26.333 33.5 -39s18.167 -24.167 24.5 -34.5s9.5 -17.833 9.5 -22.5
c0 -11.333 -4.33301 -21.5 -13 -30.5s-19.667 -13.5 -33 -13.5c-6.66699 0 -15.167 3.5 -25.5 10.5s-21.666 16.167 -33.999 27.5s-24.833 23.666 -37.5 36.999s-24.167 26.5 -34.5 39.5s-18.666 24.667 -24.999 35s-9.5 18.166 -9.5 23.499z" />
    <glyph glyph-name="dieresis" unicode="&#xa8;" horiz-adv-x="222" 
d="M244 614v108h-108v-108h108zM-22 722v-108h108v108h-108z" />
    <glyph glyph-name="copyright" unicode="&#xa9;" horiz-adv-x="800" 
d="M400 -10c50 0 98 8.66699 144 26s86.5 42.166 121.5 74.499s62.833 71.333 83.5 117s31 96.834 31 153.501c0 56 -10.333 106.833 -31 152.5s-48.5 84.667 -83.5 117s-75.5 57.333 -121.5 75s-94 26.5 -144 26.5s-98 -8.83301 -144 -26.5s-86.5 -42.667 -121.5 -75
s-62.833 -71.333 -83.5 -117s-31 -96.5 -31 -152.5c0 -56.667 10.333 -107.834 31 -153.501s48.5 -84.667 83.5 -117s75.5 -57.166 121.5 -74.499s94 -26 144 -26zM682 361c0 -42.667 -7.33301 -82 -22 -118s-34.834 -67 -60.501 -93s-55.667 -46.167 -90 -60.5
s-70.833 -21.5 -109.5 -21.5c-39.333 0 -76.166 7.16699 -110.499 21.5s-64.166 34.5 -89.499 60.5s-45.333 57 -60 93s-22 75.333 -22 118s7.33301 82 22 118s34.667 67 60 93s55.166 46.167 89.499 60.5s71.166 21.5 110.499 21.5c38.667 0 75.167 -7.16699 109.5 -21.5
s64.333 -34.5 90 -60.5s45.834 -57 60.501 -93s22 -75.333 22 -118zM514 299c-3.33301 -25.333 -13.833 -44.833 -31.5 -58.5s-40.5 -20.5 -68.5 -20.5c-18 0 -34.167 3.83301 -48.5 11.5s-26.666 18 -36.999 31s-18.333 28.333 -24 46s-8.5 36.5 -8.5 56.5
c0 42 9.83301 76 29.5 102s48.5 39 86.5 39c25.333 0 47.333 -6.33301 66 -19s30.667 -31.667 36 -57h78c-4 25.333 -11.333 47.5 -22 66.5s-23.834 35 -39.501 48s-33.667 22.833 -54 29.5s-41.833 10 -64.5 10c-32.667 0 -62 -5.5 -88 -16.5s-48 -26.333 -66 -46
s-31.833 -43 -41.5 -70s-14.5 -56.5 -14.5 -88.5c0 -31.333 5 -60.333 15 -87s24.333 -50 43 -70s41 -35.667 67 -47s55 -17 87 -17c22 0 43 3.5 63 10.5s38 17.333 54 31s29.667 30.167 41 49.5s19 41.333 23 66h-81z" />
    <glyph glyph-name="ordfeminine" unicode="&#xaa;" horiz-adv-x="266" 
d="M92 631c0.666992 12 3.49902 21.832 8.49902 29.499s14.833 11.5 29.5 11.5c12 0 20.667 -2.83301 26 -8.5s8 -15.167 8 -28.5v-19c-49.333 -18.667 -86.666 -39 -111.999 -61s-38 -50.667 -38 -86c0 -21.333 6.16699 -38.833 18.5 -52.5s30.833 -20.5 55.5 -20.5
c17.333 0 32.5 2 45.5 6s26.167 11 39.5 21c0.666992 -4 1.5 -7.66699 2.5 -11s1.5 -6.66602 1.5 -9.99902h70c-1.33301 5.33301 -2.5 11 -3.5 17s-1.5 11.667 -1.5 17v208c0 30 -9.16699 52.167 -27.5 66.5s-44.5 21.5 -78.5 21.5c-36 0 -64.833 -8.66699 -86.5 -26
s-33.5 -42.333 -35.5 -75h78zM163.999 485.999c-3.33301 -8 -8.83105 -15 -16.498 -21s-16.5 -9 -26.5 -9c-19.333 0 -29 8.66699 -29 26c0 6.66699 0.833008 13 2.5 19s5.16699 12 10.5 18s12.666 12.167 21.999 18.5s21.666 13.5 36.999 21.5v-73z" />
    <glyph glyph-name="guillemotleft" unicode="&#xab;" horiz-adv-x="500" 
d="M160 269l117 154h-99l-115 -153l115 -155h96zM327 269l117 154h-99l-115 -153l115 -155h96z" />
    <glyph glyph-name="logicalnot" unicode="&#xac;" horiz-adv-x="600" 
d="M455 99h98v307h-506v-98h408v-209z" />
    <glyph glyph-name="registered" unicode="&#xae;" horiz-adv-x="800" 
d="M334 331l52.001 0.000976562l93 -177h91l-100 181c13.333 1.33301 26.166 4.33301 38.499 9s23 11.334 32 20.001s16.167 19.667 21.5 33s8 29.666 8 48.999c0 45.333 -13.833 77.166 -41.5 95.499s-67.5 27.5 -119.5 27.5h-157v-415h82v177zM334.001 505.001h67
c30 0 51.667 -3.83301 65 -11.5s20 -21.167 20 -40.5s-6 -33.833 -18 -43.5s-33 -14.5 -63 -14.5h-71v110zM400.001 -9.99902c50 0 98 8.66699 144 26s86.5 42.166 121.5 74.499s62.833 71.333 83.5 117s31 96.834 31 153.501c0 56 -10.333 106.833 -31 152.5
s-48.5 84.667 -83.5 117s-75.5 57.333 -121.5 75s-94 26.5 -144 26.5s-98 -8.83301 -144 -26.5s-86.5 -42.667 -121.5 -75s-62.833 -71.333 -83.5 -117s-31 -96.5 -31 -152.5c0 -56.667 10.333 -107.834 31 -153.501s48.5 -84.667 83.5 -117s75.5 -57.166 121.5 -74.499
s94 -26 144 -26zM682.001 361.001c0 -42.667 -7.33301 -82 -22 -118s-34.834 -67 -60.501 -93s-55.667 -46.167 -90 -60.5s-70.833 -21.5 -109.5 -21.5c-39.333 0 -76.166 7.16699 -110.499 21.5s-64.166 34.5 -89.499 60.5s-45.333 57 -60 93s-22 75.333 -22 118
s7.33301 82 22 118s34.667 67 60 93s55.166 46.167 89.499 60.5s71.166 21.5 110.499 21.5c38.667 0 75.167 -7.16699 109.5 -21.5s64.333 -34.5 90 -60.5s45.834 -57 60.501 -93s22 -75.333 22 -118z" />
    <glyph glyph-name="macron" unicode="&#xaf;" horiz-adv-x="222" 
d="M-36 637h294v64h-294v-64z" />
    <glyph glyph-name="macron" unicode="&#x2c9;" horiz-adv-x="222" 
d="M-36 637h294v64h-294v-64z" />
    <glyph glyph-name="degree" unicode="&#xb0;" horiz-adv-x="400" 
d="M200 502c-24 0 -43.667 8.5 -59 25.5s-23 37.5 -23 61.5s7.66699 44.5 23 61.5s35 25.5 59 25.5s43.667 -8.5 59 -25.5s23 -37.5 23 -61.5s-7.66699 -44.5 -23 -61.5s-35 -25.5 -59 -25.5zM200 446c20 0 38.833 3.66699 56.5 11s33 17.5 46 30.5s23.167 28.167 30.5 45.5
s11 36 11 56s-3.66699 38.667 -11 56s-17.5 32.5 -30.5 45.5s-28.333 23.167 -46 30.5s-36.5 11 -56.5 11s-38.833 -3.66699 -56.5 -11s-33 -17.5 -46 -30.5s-23.167 -28.167 -30.5 -45.5s-11 -36 -11 -56s3.66699 -38.667 11 -56s17.5 -32.5 30.5 -45.5
s28.333 -23.167 46 -30.5s36.5 -11 56.5 -11z" />
    <glyph glyph-name="plusminus" unicode="&#xb1;" horiz-adv-x="600" 
d="M251 369h-204v-98h204v-137h98v137h204v98h-204v137h-98v-137zM47 0h506v98h-506v-98z" />
    <glyph glyph-name="twosuperior" unicode="&#xb2;" horiz-adv-x="266" 
d="M249 292l-0.00292969 79.998h-126c28 32 50.5 60.333 67.5 85s30 47.167 39 67.5s15 39.5 18 57.5s4.5 36 4.5 54c0 12.667 -2.66699 24.834 -8 36.501s-12.666 21.834 -21.999 30.501s-20.666 15.667 -33.999 21s-28.333 8 -45 8c-19.333 0 -36.833 -2.83301 -52.5 -8.5
s-29.167 -13.667 -40.5 -24s-20.166 -22.333 -26.499 -36s-9.5 -28.5 -9.5 -44.5v-20h86v19c0 9.33301 3 17.333 9 24s13.667 10 23 10c18.667 0 28 -9.33301 28 -28c0 -32 -11.833 -67.667 -35.5 -107s-60.5 -87.333 -110.5 -144v-81h235z" />
    <glyph glyph-name="threesuperior" unicode="&#xb3;" horiz-adv-x="266" 
d="M20 418l-0.00195312 -25c0 -38 10 -65.333 30 -82s47 -25 81 -25c44 0 75.833 10.5 95.5 31.5s29.5 53.167 29.5 96.5c0 29.333 -3.33301 51.833 -10 67.5s-21 29.167 -43 40.5c19.333 10.667 32 23.5 38 38.5s9 35.167 9 60.5c0 14.667 -2.33301 28.667 -7 42
s-11.667 25.166 -21 35.499s-21.166 18.5 -35.499 24.5s-31.166 9 -50.499 9c-35.333 0 -63 -9.33301 -83 -28s-30 -43 -30 -73v-20h84v17c0 7.33301 2 13.833 6 19.5s10.333 8.5 19 8.5c9.33301 0 16 -3.66699 20 -11s6 -17 6 -29c0 -24.667 -4.5 -40.5 -13.5 -47.5
s-22.833 -10.5 -41.5 -10.5v-74c19.333 0 33.666 -3.16699 42.999 -9.5s14 -21.166 14 -44.499v-25c0 -14 -2.16699 -24 -6.5 -30s-11.166 -9 -20.499 -9c-18 0 -27 10.333 -27 31v21h-86z" />
    <glyph glyph-name="acute" unicode="&#xb4;" horiz-adv-x="222" 
d="M254 746h-135l-79 -144h83z" />
    <glyph glyph-name="mu" unicode="&#xb5;" 
d="M278 538l-0.000976562 -421.998c-13.333 -9.33301 -25.666 -17.333 -36.999 -24s-23 -10 -35 -10s-21.667 3.16699 -29 9.5s-11 16.166 -11 29.499v417h-112v-708h112v160c12.667 1.33301 24 3.66602 34 6.99902s19.5 7.83301 28.5 13.5s17.833 12 26.5 19l29 24.5v-54
h106v538h-112z" />
    <glyph glyph-name="mu" unicode="&#x3bc;" 
d="M278 538l-0.000976562 -421.998c-13.333 -9.33301 -25.666 -17.333 -36.999 -24s-23 -10 -35 -10s-21.667 3.16699 -29 9.5s-11 16.166 -11 29.499v417h-112v-708h112v160c12.667 1.33301 24 3.66602 34 6.99902s19.5 7.83301 28.5 13.5s17.833 12 26.5 19l29 24.5v-54
h106v538h-112z" />
    <glyph glyph-name="paragraph" unicode="&#xb6;" horiz-adv-x="500" 
d="M195 -80l82.002 -0.000976562v738h87v-738h82v738h56v64h-288c-32 0 -60.833 -3.5 -86.5 -10.5s-47.5 -18 -65.5 -33s-31.833 -34.5 -41.5 -58.5s-14.5 -52.667 -14.5 -86c0 -26 4.33301 -50.167 13 -72.5s21.167 -41.666 37.5 -57.999s36.166 -29 59.499 -38
s49.666 -13.5 78.999 -13.5v-432z" />
    <glyph glyph-name="periodcentered" unicode="&#xb7;" horiz-adv-x="222" 
d="M44 253c0 -19.333 6.33301 -35.333 19 -48s28.667 -19 48 -19c18.667 0 34.5 6.33301 47.5 19s19.5 28.667 19.5 48c0 18.667 -6.5 34.5 -19.5 47.5s-28.833 19.5 -47.5 19.5c-19.333 0 -35.333 -6.5 -48 -19.5s-19 -28.833 -19 -47.5z" />
    <glyph glyph-name="cedilla" unicode="&#xb8;" horiz-adv-x="222" 
d="M-9 -213c7.33301 -3.33301 19.665 -8.00195 36.998 -14.002s38 -9 62 -9c16 0 31.5 2.33301 46.5 7s28.167 11.334 39.5 20.001s20.5 19.334 27.5 32.001s10.5 27 10.5 43c0 12.667 -2.66699 23.667 -8 33s-12.333 17 -21 23s-18.5 10.667 -29.5 14
s-21.833 5.33301 -32.5 6c-3.33301 0 -6.83301 -0.166992 -10.5 -0.5s-7.16699 -0.833008 -10.5 -1.5l41 60h-48l-68 -92l22 -18c6.66699 2.66699 14.834 4.66699 24.501 6s18.834 1 27.501 -1s16 -5.66699 22 -11s9 -13 9 -23c0 -11.333 -5.5 -21 -16.5 -29
s-25.167 -12 -42.5 -12c-9.33301 0 -20.5 1.83301 -33.5 5.5s-23.5 7.5 -31.5 11.5z" />
    <glyph glyph-name="onesuperior" unicode="&#xb9;" horiz-adv-x="266" 
d="M94 292h96v440h-49c-13.333 -11.333 -28.333 -21.833 -45 -31.5s-34.667 -18.167 -54 -25.5v-48h52v-335z" />
    <glyph glyph-name="ordmasculine" unicode="&#xba;" horiz-adv-x="266" 
d="M164 509c0 -32.667 -10.333 -49 -31 -49s-31 16.333 -31 49v110c0 32.667 10.333 49 31 49s31 -16.333 31 -49v-110zM20 517c0 -35.333 8.5 -64.334 25.5 -87.001s46.167 -34 87.5 -34c42 0 71.333 11.167 88 33.5s25 51.5 25 87.5v95c0 36 -8.33301 65 -25 87
s-46 33 -88 33c-41.333 0 -70.5 -11.167 -87.5 -33.5s-25.5 -51.166 -25.5 -86.499v-95z" />
    <glyph glyph-name="guillemotright" unicode="&#xbb;" horiz-adv-x="500" 
d="M226 115h96l115 155l-115 153h-99l117 -154zM59 115h96l115 155l-115 153h-99l117 -154z" />
    <glyph glyph-name="onequarter" unicode="&#xbc;" horiz-adv-x="666" 
d="M448 176l62 133h2v-133h-64zM512 0h82v100h38v76h-38v257h-95l-129 -253v-80h142v-100zM165 -10l410 742h-91l-410 -742h91zM102 292l96 0.000976562v439h-49c-13.333 -10.667 -28.333 -20.834 -45 -30.501s-34.667 -18.167 -54 -25.5v-48h52v-335z" />
    <glyph glyph-name="onehalf" unicode="&#xbd;" horiz-adv-x="666" 
d="M157 -10l410 742h-91l-410 -742h91zM100 292h96v440h-49c-13.333 -11.333 -28.333 -21.833 -45 -31.5s-34.667 -18.167 -54 -25.5v-48h52v-335zM633 0l-0.00292969 79.998h-126c28 32 50.5 60.333 67.5 85s30 47.167 39 67.5s15 39.5 18 57.5s4.5 36 4.5 54
c0 12.667 -2.66699 24.834 -8 36.501s-12.666 21.834 -21.999 30.501s-20.666 15.667 -33.999 21s-28.333 8 -45 8c-19.333 0 -36.833 -2.83301 -52.5 -8.5s-29.167 -13.667 -40.5 -24s-20.166 -22.333 -26.499 -36s-9.5 -28.5 -9.5 -44.5v-20h86v19
c0 9.33301 3 17.333 9 24s13.667 10 23 10c18.667 0 28 -9.33301 28 -28c0 -32 -11.833 -67.667 -35.5 -107s-60.5 -87.333 -110.5 -144v-81h235z" />
    <glyph glyph-name="threequarters" unicode="&#xbe;" horiz-adv-x="666" 
d="M448 176l62 133h2v-133h-64zM512 0h82v100h38v76h-38v257h-95l-129 -253v-80h142v-100zM184 -10l410 742h-91l-410 -742h91zM30 418l-0.00195312 -25c0 -38 10 -65.333 30 -82s47 -25 81 -25c44 0 75.833 10.5 95.5 31.5s29.5 53.167 29.5 96.5
c0 29.333 -3.33301 51.833 -10 67.5s-21 29.167 -43 40.5c19.333 10.667 32 23.5 38 38.5s9 35.167 9 60.5c0 14.667 -2.33301 28.667 -7 42s-11.667 25.166 -21 35.499s-21.166 18.5 -35.499 24.5s-31.166 9 -50.499 9c-35.333 0 -63 -9.33301 -83 -28s-30 -43 -30 -73v-20
h84v17c0 7.33301 2 13.833 6 19.5s10.333 8.5 19 8.5c9.33301 0 16 -3.66699 20 -11s6 -17 6 -29c0 -24.667 -4.5 -40.5 -13.5 -47.5s-22.833 -10.5 -41.5 -10.5v-74c19.333 0 33.666 -3.16699 42.999 -9.5s14 -21.166 14 -44.499v-25c0 -14 -2.16699 -24 -6.5 -30
s-11.166 -9 -20.499 -9c-18 0 -27 10.333 -27 31v21h-86z" />
    <glyph glyph-name="questiondown" unicode="&#xbf;" horiz-adv-x="389" 
d="M156 326l0.00585938 -54.002c0 -22 -1.83301 -41.667 -5.5 -59s-8.33398 -33 -14.001 -47s-12.167 -26.667 -19.5 -38s-15 -22.333 -23 -33l-23 -32c-7.33301 -10.667 -13.833 -22 -19.5 -34s-10.334 -25.167 -14.001 -39.5s-5.5 -30.833 -5.5 -49.5
c0 -19.333 4 -37.166 12 -53.499s18.667 -30.5 32 -42.5s28.666 -21.333 45.999 -28s35.333 -10 54 -10c48 0 86.333 11 115 33s50.667 55 66 99l-96 36c-2 -8.66699 -5 -17.5 -9 -26.5s-8.83301 -17.167 -14.5 -24.5s-12.334 -13.333 -20.001 -18s-16.834 -7 -27.501 -7
c-12.667 0 -22.834 4.5 -30.501 13.5s-11.5 19.5 -11.5 31.5c0 18.667 5.33301 38.334 16 59.001l36 67c13.333 24 25.333 50.167 36 78.5s16 59.833 16 94.5v84h-96zM147.006 537.998v-118h118v118h-118z" />
    <glyph glyph-name="Agrave" unicode="&#xc0;" 
d="M221 578h2l49 -310h-100zM154 160h136l22 -160h120l-133 722h-154l-133 -722h120zM210 760h83l-79 144h-135z" />
    <glyph glyph-name="Aacute" unicode="&#xc1;" 
d="M221 578h2l49 -310h-100zM154 160h136l22 -160h120l-133 722h-154l-133 -722h120zM365 904h-135l-79 -144h83z" />
    <glyph glyph-name="Acircumflex" unicode="&#xc2;" 
d="M221 578h2l49 -310h-100zM154 160h136l22 -160h120l-133 722h-154l-133 -722h120zM71 760h92l59 89l59 -89h92l-96 144h-110z" />
    <glyph glyph-name="Atilde" unicode="&#xc3;" 
d="M221 578h2l49 -310h-100zM154 160h136l22 -160h120l-133 722h-154l-133 -722h120zM329 891c-0.666992 -14.667 -4 -25.667 -10 -33s-16.667 -11 -32 -11c-10.667 0 -20.834 2.16699 -30.501 6.5l-29.5 13.5c-10 4.66699 -20.333 9 -31 13s-22 6 -34 6
c-16.667 0 -31 -3.5 -43 -10.5s-22 -16 -30 -27s-14.333 -23.667 -19 -38s-8.33398 -28.5 -11.001 -42.5h56c0.666992 14.667 4 25.667 10 33s16.667 11 32 11c10.667 0 20.834 -1.83301 30.501 -5.5s19.5 -8.16699 29.5 -13.5s20.333 -10 31 -14s22 -6 34 -6
c16.667 0 30.834 3.5 42.501 10.5s21.5 16 29.5 27s14.5 23.667 19.5 38s8.83301 28.5 11.5 42.5h-56z" />
    <glyph glyph-name="Adieresis" unicode="&#xc4;" 
d="M221 578h2l49 -310h-100zM154 160h136l22 -160h120l-133 722h-154l-133 -722h120zM355 772v108h-108v-108h108zM89 880v-108h108v108h-108z" />
    <glyph glyph-name="Aring" unicode="&#xc5;" 
d="M221 578h2l49 -310h-100zM154 160h136l22 -160h120l-133 722h-154l-133 -722h120zM120 862c0 -14 2.66699 -27.167 8 -39.5s12.666 -23.166 21.999 -32.499s20.166 -16.666 32.499 -21.999s25.5 -8 39.5 -8s27.167 2.66699 39.5 8s23.166 12.666 32.499 21.999
s16.666 20.166 21.999 32.499s8 25.5 8 39.5s-2.66699 27.167 -8 39.5s-12.666 23.166 -21.999 32.499s-20.166 16.666 -32.499 21.999s-25.5 8 -39.5 8s-27.167 -2.66699 -39.5 -8s-23.166 -12.666 -32.499 -21.999s-16.666 -20.166 -21.999 -32.499s-8 -25.5 -8 -39.5z
M170 862c0 14.667 5 27 15 37s22.333 15 37 15s27 -5 37 -15s15 -22.333 15 -37s-5 -27 -15 -37s-22.333 -15 -37 -15s-27 5 -37 15s-15 22.333 -15 37z" />
    <glyph glyph-name="AE" unicode="&#xc6;" horiz-adv-x="722" 
d="M224 278l108 354h2v-354h-110zM12 0h126l52 170h144v-170h350v108h-226v212h164v108h-164v186h212v108h-425z" />
    <glyph glyph-name="Ccedilla" unicode="&#xc7;" horiz-adv-x="500" 
d="M434 481l0.000976562 53.0029c0 26.667 -3.83301 52 -11.5 76s-19 45 -34 63s-34.167 32.333 -57.5 43s-50.333 16 -81 16c-32.667 0 -60.834 -4.83301 -84.501 -14.5s-43.334 -22.834 -59.001 -39.501s-27.334 -36.334 -35.001 -59.001s-11.5 -46.667 -11.5 -72v-372
c0 -25.333 3.83301 -49.333 11.5 -72s19.334 -42.334 35.001 -59.001s35.334 -29.834 59.001 -39.501s51.834 -14.5 84.501 -14.5c30.667 0 57.667 4.83301 81 14.5s42.5 22.834 57.5 39.501s26.333 36.334 34 59.001s11.5 46.667 11.5 72v83h-124v-87
c0 -23.333 -4.33301 -41.333 -13 -54s-24.334 -19 -47.001 -19c-25.333 0 -42.666 6.5 -51.999 19.5s-14 33.167 -14 60.5v366c0 27.333 4.66699 47.5 14 60.5s26.666 19.5 51.999 19.5c16 0 30 -6.83301 42 -20.5s18 -35.834 18 -66.501v-56h124zM130.001 -212.997
c7.33301 -3.33301 19.665 -8.00195 36.998 -14.002s38 -9 62 -9c16 0 31.5 2.33301 46.5 7s28.167 11.334 39.5 20.001s20.5 19.334 27.5 32.001s10.5 27 10.5 43c0 12.667 -2.66699 23.667 -8 33s-12.333 17 -21 23s-18.5 10.667 -29.5 14s-21.833 5.33301 -32.5 6
c-3.33301 0 -6.83301 -0.166992 -10.5 -0.5s-7.16699 -0.833008 -10.5 -1.5l41 60h-48l-68 -92l22 -18c6.66699 2.66699 14.834 4.66699 24.501 6s18.834 1 27.501 -1s16 -5.66699 22 -11s9 -13 9 -23c0 -11.333 -5.5 -21 -16.5 -29s-25.167 -12 -42.5 -12
c-9.33301 0 -20.5 1.83301 -33.5 5.5s-23.5 7.5 -31.5 11.5z" />
    <glyph glyph-name="Egrave" unicode="&#xc8;" 
d="M406 0v108h-222v212h160v108h-160v186h208v108h-332v-722h346zM222 760h83l-79 144h-135z" />
    <glyph glyph-name="Eacute" unicode="&#xc9;" 
d="M406 0v108h-222v212h160v108h-160v186h208v108h-332v-722h346zM377 904h-135l-79 -144h83z" />
    <glyph glyph-name="Ecircumflex" unicode="&#xca;" 
d="M406 0v108h-222v212h160v108h-160v186h208v108h-332v-722h346zM83 760h92l59 89l59 -89h92l-96 144h-110z" />
    <glyph glyph-name="Edieresis" unicode="&#xcb;" 
d="M406 0v108h-222v212h160v108h-160v186h208v108h-332v-722h346zM367 772v108h-108v-108h108zM101 880v-108h108v108h-108z" />
    <glyph glyph-name="Igrave" unicode="&#xcc;" horiz-adv-x="278" 
d="M201 0v722h-124v-722h124zM127 760h83l-79 144h-135z" />
    <glyph glyph-name="Iacute" unicode="&#xcd;" horiz-adv-x="278" 
d="M201 0v722h-124v-722h124zM282 904h-135l-79 -144h83z" />
    <glyph glyph-name="Icircumflex" unicode="&#xce;" horiz-adv-x="278" 
d="M201 0v722h-124v-722h124zM-12 760h92l59 89l59 -89h92l-96 144h-110z" />
    <glyph glyph-name="Idieresis" unicode="&#xcf;" horiz-adv-x="278" 
d="M201 0v722h-124v-722h124zM272 772v108h-108v-108h108zM6 880v-108h108v108h-108z" />
    <glyph glyph-name="Eth" unicode="&#xd0;" horiz-adv-x="500" 
d="M20 320h40v-320h184c64.667 0 113.5 17.667 146.5 53s49.5 90.333 49.5 165v286c0 74.667 -16.5 129.667 -49.5 165s-81.833 53 -146.5 53h-184v-294h-40v-108zM258 428h-74v192h43c33.333 0 56.5 -7.33301 69.5 -22s19.5 -41 19.5 -79v-316
c0 -38 -6.5 -64.333 -19.5 -79s-36.167 -22 -69.5 -22h-43v218h74v108z" />
    <glyph glyph-name="Ntilde" unicode="&#xd1;" horiz-adv-x="500" 
d="M172 0v451h2l158 -451h108v722h-112v-413h-2l-151 413h-115v-722h112zM357 891c-0.666992 -14.667 -4 -25.667 -10 -33s-16.667 -11 -32 -11c-10.667 0 -20.834 2.16699 -30.501 6.5l-29.5 13.5c-10 4.66699 -20.333 9 -31 13s-22 6 -34 6c-16.667 0 -31 -3.5 -43 -10.5
s-22 -16 -30 -27s-14.333 -23.667 -19 -38s-8.33398 -28.5 -11.001 -42.5h56c0.666992 14.667 4 25.667 10 33s16.667 11 32 11c10.667 0 20.834 -1.83301 30.501 -5.5s19.5 -8.16699 29.5 -13.5s20.333 -10 31 -14s22 -6 34 -6c16.667 0 30.834 3.5 42.501 10.5
s21.5 16 29.5 27s14.5 23.667 19.5 38s8.83301 28.5 11.5 42.5h-56z" />
    <glyph glyph-name="Ograve" unicode="&#xd2;" horiz-adv-x="500" 
d="M60 175c0 -25.333 3.83301 -49.333 11.5 -72s19.334 -42.334 35.001 -59.001s35.334 -29.834 59.001 -39.501s51.834 -14.5 84.501 -14.5s60.834 4.83301 84.501 14.5s43.334 22.834 59.001 39.501s27.334 36.334 35.001 59.001s11.5 46.667 11.5 72v372
c0 25.333 -3.83301 49.333 -11.5 72s-19.334 42.334 -35.001 59.001s-35.334 29.834 -59.001 39.501s-51.834 14.5 -84.501 14.5s-60.834 -4.83301 -84.501 -14.5s-43.334 -22.834 -59.001 -39.501s-27.334 -36.334 -35.001 -59.001s-11.5 -46.667 -11.5 -72v-372zM184 544
c0 27.333 4.66699 47.5 14 60.5s26.666 19.5 51.999 19.5s42.666 -6.5 51.999 -19.5s14 -33.167 14 -60.5v-366c0 -27.333 -4.66699 -47.5 -14 -60.5s-26.666 -19.5 -51.999 -19.5s-42.666 6.5 -51.999 19.5s-14 33.167 -14 60.5v366zM238 760h83l-79 144h-135z" />
    <glyph glyph-name="Oacute" unicode="&#xd3;" horiz-adv-x="500" 
d="M60 175c0 -25.333 3.83301 -49.333 11.5 -72s19.334 -42.334 35.001 -59.001s35.334 -29.834 59.001 -39.501s51.834 -14.5 84.501 -14.5s60.834 4.83301 84.501 14.5s43.334 22.834 59.001 39.501s27.334 36.334 35.001 59.001s11.5 46.667 11.5 72v372
c0 25.333 -3.83301 49.333 -11.5 72s-19.334 42.334 -35.001 59.001s-35.334 29.834 -59.001 39.501s-51.834 14.5 -84.501 14.5s-60.834 -4.83301 -84.501 -14.5s-43.334 -22.834 -59.001 -39.501s-27.334 -36.334 -35.001 -59.001s-11.5 -46.667 -11.5 -72v-372zM184 544
c0 27.333 4.66699 47.5 14 60.5s26.666 19.5 51.999 19.5s42.666 -6.5 51.999 -19.5s14 -33.167 14 -60.5v-366c0 -27.333 -4.66699 -47.5 -14 -60.5s-26.666 -19.5 -51.999 -19.5s-42.666 6.5 -51.999 19.5s-14 33.167 -14 60.5v366zM393 904h-135l-79 -144h83z" />
    <glyph glyph-name="Ocircumflex" unicode="&#xd4;" horiz-adv-x="500" 
d="M60 175c0 -25.333 3.83301 -49.333 11.5 -72s19.334 -42.334 35.001 -59.001s35.334 -29.834 59.001 -39.501s51.834 -14.5 84.501 -14.5s60.834 4.83301 84.501 14.5s43.334 22.834 59.001 39.501s27.334 36.334 35.001 59.001s11.5 46.667 11.5 72v372
c0 25.333 -3.83301 49.333 -11.5 72s-19.334 42.334 -35.001 59.001s-35.334 29.834 -59.001 39.501s-51.834 14.5 -84.501 14.5s-60.834 -4.83301 -84.501 -14.5s-43.334 -22.834 -59.001 -39.501s-27.334 -36.334 -35.001 -59.001s-11.5 -46.667 -11.5 -72v-372zM184 544
c0 27.333 4.66699 47.5 14 60.5s26.666 19.5 51.999 19.5s42.666 -6.5 51.999 -19.5s14 -33.167 14 -60.5v-366c0 -27.333 -4.66699 -47.5 -14 -60.5s-26.666 -19.5 -51.999 -19.5s-42.666 6.5 -51.999 19.5s-14 33.167 -14 60.5v366zM99 760h92l59 89l59 -89h92l-96 144
h-110z" />
    <glyph glyph-name="Otilde" unicode="&#xd5;" horiz-adv-x="500" 
d="M60 175c0 -25.333 3.83301 -49.333 11.5 -72s19.334 -42.334 35.001 -59.001s35.334 -29.834 59.001 -39.501s51.834 -14.5 84.501 -14.5s60.834 4.83301 84.501 14.5s43.334 22.834 59.001 39.501s27.334 36.334 35.001 59.001s11.5 46.667 11.5 72v372
c0 25.333 -3.83301 49.333 -11.5 72s-19.334 42.334 -35.001 59.001s-35.334 29.834 -59.001 39.501s-51.834 14.5 -84.501 14.5s-60.834 -4.83301 -84.501 -14.5s-43.334 -22.834 -59.001 -39.501s-27.334 -36.334 -35.001 -59.001s-11.5 -46.667 -11.5 -72v-372zM184 544
c0 27.333 4.66699 47.5 14 60.5s26.666 19.5 51.999 19.5s42.666 -6.5 51.999 -19.5s14 -33.167 14 -60.5v-366c0 -27.333 -4.66699 -47.5 -14 -60.5s-26.666 -19.5 -51.999 -19.5s-42.666 6.5 -51.999 19.5s-14 33.167 -14 60.5v366zM357 891
c-0.666992 -14.667 -4 -25.667 -10 -33s-16.667 -11 -32 -11c-10.667 0 -20.834 2.16699 -30.501 6.5l-29.5 13.5c-10 4.66699 -20.333 9 -31 13s-22 6 -34 6c-16.667 0 -31 -3.5 -43 -10.5s-22 -16 -30 -27s-14.333 -23.667 -19 -38s-8.33398 -28.5 -11.001 -42.5h56
c0.666992 14.667 4 25.667 10 33s16.667 11 32 11c10.667 0 20.834 -1.83301 30.501 -5.5s19.5 -8.16699 29.5 -13.5s20.333 -10 31 -14s22 -6 34 -6c16.667 0 30.834 3.5 42.501 10.5s21.5 16 29.5 27s14.5 23.667 19.5 38s8.83301 28.5 11.5 42.5h-56z" />
    <glyph glyph-name="Odieresis" unicode="&#xd6;" horiz-adv-x="500" 
d="M60 175c0 -25.333 3.83301 -49.333 11.5 -72s19.334 -42.334 35.001 -59.001s35.334 -29.834 59.001 -39.501s51.834 -14.5 84.501 -14.5s60.834 4.83301 84.501 14.5s43.334 22.834 59.001 39.501s27.334 36.334 35.001 59.001s11.5 46.667 11.5 72v372
c0 25.333 -3.83301 49.333 -11.5 72s-19.334 42.334 -35.001 59.001s-35.334 29.834 -59.001 39.501s-51.834 14.5 -84.501 14.5s-60.834 -4.83301 -84.501 -14.5s-43.334 -22.834 -59.001 -39.501s-27.334 -36.334 -35.001 -59.001s-11.5 -46.667 -11.5 -72v-372zM184 544
c0 27.333 4.66699 47.5 14 60.5s26.666 19.5 51.999 19.5s42.666 -6.5 51.999 -19.5s14 -33.167 14 -60.5v-366c0 -27.333 -4.66699 -47.5 -14 -60.5s-26.666 -19.5 -51.999 -19.5s-42.666 6.5 -51.999 19.5s-14 33.167 -14 60.5v366zM383 772v108h-108v-108h108zM117 880
v-108h108v108h-108z" />
    <glyph glyph-name="multiply" unicode="&#xd7;" horiz-adv-x="600" 
d="M553 437l-69 69l-184 -184l-184 184l-69 -69l184 -184l-184 -183l69 -70l184 184l184 -184l69 70l-183 183z" />
    <glyph glyph-name="Oslash" unicode="&#xd8;" horiz-adv-x="500" 
d="M186 257h-2v287c0 27.333 4.66699 47.5 14 60.5s26.666 19.5 51.999 19.5c18.667 0 32.834 -3.5 42.501 -10.5s16.167 -17.5 19.5 -31.5zM314 424h1.99902v-246c0 -27.333 -4.66699 -47.5 -14 -60.5s-26.666 -19.5 -51.999 -19.5c-27.333 0 -45 7.66699 -53 23z
M159.999 7c26 -11.333 56 -17 90 -17c32.667 0 60.834 4.83301 84.501 14.5s43.334 22.834 59.001 39.501s27.334 36.334 35.001 59.001s11.5 46.667 11.5 72v372c0 40.667 -9 75.667 -27 105l59 152h-81l-38 -96c-28 16 -62.333 24 -103 24
c-32.667 0 -60.834 -4.83301 -84.501 -14.5s-43.334 -22.834 -59.001 -39.501s-27.334 -36.334 -35.001 -59.001s-11.5 -46.667 -11.5 -72v-372c0 -23.333 3 -45 9 -65s15.333 -38 28 -54l-69 -176h82z" />
    <glyph glyph-name="Ugrave" unicode="&#xd9;" horiz-adv-x="500" 
d="M60 182c0 -62.667 16.833 -110.334 50.5 -143.001s80.167 -49 139.5 -49s105.833 16.333 139.5 49s50.5 80.334 50.5 143.001v540h-124v-545c0 -52.667 -22 -79 -66 -79s-66 26.333 -66 79v545h-124v-540zM238 760h83l-79 144h-135z" />
    <glyph glyph-name="Uacute" unicode="&#xda;" horiz-adv-x="500" 
d="M60 182c0 -62.667 16.833 -110.334 50.5 -143.001s80.167 -49 139.5 -49s105.833 16.333 139.5 49s50.5 80.334 50.5 143.001v540h-124v-545c0 -52.667 -22 -79 -66 -79s-66 26.333 -66 79v545h-124v-540zM393 904h-135l-79 -144h83z" />
    <glyph glyph-name="Ucircumflex" unicode="&#xdb;" horiz-adv-x="500" 
d="M60 182c0 -62.667 16.833 -110.334 50.5 -143.001s80.167 -49 139.5 -49s105.833 16.333 139.5 49s50.5 80.334 50.5 143.001v540h-124v-545c0 -52.667 -22 -79 -66 -79s-66 26.333 -66 79v545h-124v-540zM99 760h92l59 89l59 -89h92l-96 144h-110z" />
    <glyph glyph-name="Udieresis" unicode="&#xdc;" horiz-adv-x="500" 
d="M60 182c0 -62.667 16.833 -110.334 50.5 -143.001s80.167 -49 139.5 -49s105.833 16.333 139.5 49s50.5 80.334 50.5 143.001v540h-124v-545c0 -52.667 -22 -79 -66 -79s-66 26.333 -66 79v545h-124v-540zM383 772v108h-108v-108h108zM117 880v-108h108v108h-108z" />
    <glyph glyph-name="Yacute" unicode="&#xdd;" 
d="M284 300l150 422h-126l-83 -275h-2l-87 275h-126l150 -422v-300h124v300zM365 904h-135l-79 -144h83z" />
    <glyph glyph-name="Thorn" unicode="&#xde;" horiz-adv-x="500" 
d="M184 722l-123.999 -0.000976562v-722h124v156h54c38 0 71.167 3.83301 99.5 11.5s51.666 20 69.999 37s32 39 41 66s13.5 59.833 13.5 98.5c0 76.667 -18.167 131.334 -54.5 164.001s-92.833 49 -169.5 49h-54v140zM184.001 479.999l48 -0.00292969
c20 0 36.833 -1.83301 50.5 -5.5s24.667 -9.66699 33 -18s14.166 -19.666 17.499 -33.999s5 -32.166 5 -53.499s-1.66699 -39.166 -5 -53.499s-9.16602 -25.833 -17.499 -34.5s-19.333 -14.667 -33 -18s-30.5 -5 -50.5 -5h-48v222z" />
    <glyph glyph-name="germandbls" unicode="&#xdf;" 
d="M166 0l-0.000976562 562c0 26 4 44.833 12 56.5s21.667 17.5 41 17.5c17.333 0 30.333 -4.83301 39 -14.5s13 -26.167 13 -49.5v-70c0 -13.333 -0.666992 -24.333 -2 -33s-3.66602 -15.667 -6.99902 -21s-8 -9.33301 -14 -12s-14 -4.66699 -24 -6v-92
c20 0 35.333 -6.16699 46 -18.5s16 -32.166 16 -59.499v-101c0 -22.667 -2.66699 -39.5 -8 -50.5s-15.666 -16.5 -30.999 -16.5c-10 0 -19 1 -27 3v-95h66c18.667 0 35.167 3.16699 49.5 9.5s26.5 17.333 36.5 33s17.5 36.667 22.5 63s7.5 59.166 7.5 98.499
c0 58 -7.33301 101.833 -22 131.5s-38 49.5 -70 59.5v2c26 3.33301 44.667 16.5 56 39.5s17 54.5 17 94.5c0 27.333 -2.5 53 -7.5 77s-14 44.833 -27 62.5s-30.5 31.667 -52.5 42s-49.667 15.5 -83 15.5c-50.667 0 -89.834 -15.667 -117.501 -47s-41.5 -78.333 -41.5 -141
v-540h112z" />
    <glyph glyph-name="agrave" unicode="&#xe0;" 
d="M154 380c1.33301 23.333 6.00195 41.8301 14.002 55.4971s24.667 20.5 50 20.5c36.667 0 55 -23 55 -69v-32c-40 -15.333 -75 -31.166 -105 -47.499s-55 -34.166 -75 -53.499s-34.833 -40.666 -44.5 -63.999s-14.5 -49.666 -14.5 -78.999c0 -34.667 9.5 -63.5 28.5 -86.5
s47.5 -34.5 85.5 -34.5c27.333 0 50.666 4.33301 69.999 13s39.666 21.667 60.999 39c0.666992 -6.66699 1.66699 -13.5 3 -20.5s2.33301 -14.167 3 -21.5h107c-1.33301 9.33301 -2.83301 19 -4.5 29s-2.5 19.333 -2.5 28v345c0 49.333 -14.167 86 -42.5 110
s-68.5 36 -120.5 36c-52.667 0 -95 -14.333 -127 -43s-49.667 -70.334 -53 -125.001h112zM273.002 131.997c-9.33301 -13.333 -20.333 -25 -33 -35s-26.667 -15 -42 -15c-17.333 0 -30.333 3.83301 -39 11.5s-13 20.167 -13 37.5c0 12 1.83301 23.333 5.5 34
s10.167 21.667 19.5 33s22.333 23 39 35s37.667 25.333 63 40v-141zM210.002 601.997h83l-79 144h-135z" />
    <glyph glyph-name="aacute" unicode="&#xe1;" 
d="M154 380c1.33301 23.333 6.00195 41.8301 14.002 55.4971s24.667 20.5 50 20.5c36.667 0 55 -23 55 -69v-32c-40 -15.333 -75 -31.166 -105 -47.499s-55 -34.166 -75 -53.499s-34.833 -40.666 -44.5 -63.999s-14.5 -49.666 -14.5 -78.999c0 -34.667 9.5 -63.5 28.5 -86.5
s47.5 -34.5 85.5 -34.5c27.333 0 50.666 4.33301 69.999 13s39.666 21.667 60.999 39c0.666992 -6.66699 1.66699 -13.5 3 -20.5s2.33301 -14.167 3 -21.5h107c-1.33301 9.33301 -2.83301 19 -4.5 29s-2.5 19.333 -2.5 28v345c0 49.333 -14.167 86 -42.5 110
s-68.5 36 -120.5 36c-52.667 0 -95 -14.333 -127 -43s-49.667 -70.334 -53 -125.001h112zM273.002 131.997c-9.33301 -13.333 -20.333 -25 -33 -35s-26.667 -15 -42 -15c-17.333 0 -30.333 3.83301 -39 11.5s-13 20.167 -13 37.5c0 12 1.83301 23.333 5.5 34
s10.167 21.667 19.5 33s22.333 23 39 35s37.667 25.333 63 40v-141zM365.002 745.997h-135l-79 -144h83z" />
    <glyph glyph-name="acircumflex" unicode="&#xe2;" 
d="M154 380c1.33301 23.333 6.00195 41.8301 14.002 55.4971s24.667 20.5 50 20.5c36.667 0 55 -23 55 -69v-32c-40 -15.333 -75 -31.166 -105 -47.499s-55 -34.166 -75 -53.499s-34.833 -40.666 -44.5 -63.999s-14.5 -49.666 -14.5 -78.999c0 -34.667 9.5 -63.5 28.5 -86.5
s47.5 -34.5 85.5 -34.5c27.333 0 50.666 4.33301 69.999 13s39.666 21.667 60.999 39c0.666992 -6.66699 1.66699 -13.5 3 -20.5s2.33301 -14.167 3 -21.5h107c-1.33301 9.33301 -2.83301 19 -4.5 29s-2.5 19.333 -2.5 28v345c0 49.333 -14.167 86 -42.5 110
s-68.5 36 -120.5 36c-52.667 0 -95 -14.333 -127 -43s-49.667 -70.334 -53 -125.001h112zM273.002 131.997c-9.33301 -13.333 -20.333 -25 -33 -35s-26.667 -15 -42 -15c-17.333 0 -30.333 3.83301 -39 11.5s-13 20.167 -13 37.5c0 12 1.83301 23.333 5.5 34
s10.167 21.667 19.5 33s22.333 23 39 35s37.667 25.333 63 40v-141zM71.002 601.997h92l59 89l59 -89h92l-96 144h-110z" />
    <glyph glyph-name="atilde" unicode="&#xe3;" 
d="M154 380c1.33301 23.333 6.00195 41.8301 14.002 55.4971s24.667 20.5 50 20.5c36.667 0 55 -23 55 -69v-32c-40 -15.333 -75 -31.166 -105 -47.499s-55 -34.166 -75 -53.499s-34.833 -40.666 -44.5 -63.999s-14.5 -49.666 -14.5 -78.999c0 -34.667 9.5 -63.5 28.5 -86.5
s47.5 -34.5 85.5 -34.5c27.333 0 50.666 4.33301 69.999 13s39.666 21.667 60.999 39c0.666992 -6.66699 1.66699 -13.5 3 -20.5s2.33301 -14.167 3 -21.5h107c-1.33301 9.33301 -2.83301 19 -4.5 29s-2.5 19.333 -2.5 28v345c0 49.333 -14.167 86 -42.5 110
s-68.5 36 -120.5 36c-52.667 0 -95 -14.333 -127 -43s-49.667 -70.334 -53 -125.001h112zM273.002 131.997c-9.33301 -13.333 -20.333 -25 -33 -35s-26.667 -15 -42 -15c-17.333 0 -30.333 3.83301 -39 11.5s-13 20.167 -13 37.5c0 12 1.83301 23.333 5.5 34
s10.167 21.667 19.5 33s22.333 23 39 35s37.667 25.333 63 40v-141zM329.002 732.997c-0.666992 -14.667 -4 -25.667 -10 -33s-16.667 -11 -32 -11c-10.667 0 -20.834 2.16699 -30.501 6.5l-29.5 13.5c-10 4.66699 -20.333 9 -31 13s-22 6 -34 6
c-16.667 0 -31 -3.5 -43 -10.5s-22 -16 -30 -27s-14.333 -23.667 -19 -38s-8.33398 -28.5 -11.001 -42.5h56c0.666992 14.667 4 25.667 10 33s16.667 11 32 11c10.667 0 20.834 -1.83301 30.501 -5.5s19.5 -8.16699 29.5 -13.5s20.333 -10 31 -14s22 -6 34 -6
c16.667 0 30.834 3.5 42.501 10.5s21.5 16 29.5 27s14.5 23.667 19.5 38s8.83301 28.5 11.5 42.5h-56z" />
    <glyph glyph-name="adieresis" unicode="&#xe4;" 
d="M154 380c1.33301 23.333 6.00195 41.8301 14.002 55.4971s24.667 20.5 50 20.5c36.667 0 55 -23 55 -69v-32c-40 -15.333 -75 -31.166 -105 -47.499s-55 -34.166 -75 -53.499s-34.833 -40.666 -44.5 -63.999s-14.5 -49.666 -14.5 -78.999c0 -34.667 9.5 -63.5 28.5 -86.5
s47.5 -34.5 85.5 -34.5c27.333 0 50.666 4.33301 69.999 13s39.666 21.667 60.999 39c0.666992 -6.66699 1.66699 -13.5 3 -20.5s2.33301 -14.167 3 -21.5h107c-1.33301 9.33301 -2.83301 19 -4.5 29s-2.5 19.333 -2.5 28v345c0 49.333 -14.167 86 -42.5 110
s-68.5 36 -120.5 36c-52.667 0 -95 -14.333 -127 -43s-49.667 -70.334 -53 -125.001h112zM273.002 131.997c-9.33301 -13.333 -20.333 -25 -33 -35s-26.667 -15 -42 -15c-17.333 0 -30.333 3.83301 -39 11.5s-13 20.167 -13 37.5c0 12 1.83301 23.333 5.5 34
s10.167 21.667 19.5 33s22.333 23 39 35s37.667 25.333 63 40v-141zM355.002 613.997v108h-108v-108h108zM89.002 721.997v-108h108v108h-108z" />
    <glyph glyph-name="aring" unicode="&#xe5;" 
d="M154 380c1.33301 23.333 6.00195 41.8301 14.002 55.4971s24.667 20.5 50 20.5c36.667 0 55 -23 55 -69v-32c-40 -15.333 -75 -31.166 -105 -47.499s-55 -34.166 -75 -53.499s-34.833 -40.666 -44.5 -63.999s-14.5 -49.666 -14.5 -78.999c0 -34.667 9.5 -63.5 28.5 -86.5
s47.5 -34.5 85.5 -34.5c27.333 0 50.666 4.33301 69.999 13s39.666 21.667 60.999 39c0.666992 -6.66699 1.66699 -13.5 3 -20.5s2.33301 -14.167 3 -21.5h107c-1.33301 9.33301 -2.83301 19 -4.5 29s-2.5 19.333 -2.5 28v345c0 49.333 -14.167 86 -42.5 110
s-68.5 36 -120.5 36c-52.667 0 -95 -14.333 -127 -43s-49.667 -70.334 -53 -125.001h112zM273.002 131.997c-9.33301 -13.333 -20.333 -25 -33 -35s-26.667 -15 -42 -15c-17.333 0 -30.333 3.83301 -39 11.5s-13 20.167 -13 37.5c0 12 1.83301 23.333 5.5 34
s10.167 21.667 19.5 33s22.333 23 39 35s37.667 25.333 63 40v-141zM120.002 703.997c0 -14 2.66699 -27.167 8 -39.5s12.666 -23.166 21.999 -32.499s20.166 -16.666 32.499 -21.999s25.5 -8 39.5 -8s27.167 2.66699 39.5 8s23.166 12.666 32.499 21.999
s16.666 20.166 21.999 32.499s8 25.5 8 39.5s-2.66699 27.167 -8 39.5s-12.666 23.166 -21.999 32.499s-20.166 16.666 -32.499 21.999s-25.5 8 -39.5 8s-27.167 -2.66699 -39.5 -8s-23.166 -12.666 -32.499 -21.999s-16.666 -20.166 -21.999 -32.499s-8 -25.5 -8 -39.5z
M170.002 703.997c0 14.667 5 27 15 37s22.333 15 37 15s27 -5 37 -15s15 -22.333 15 -37s-5 -27 -15 -37s-22.333 -15 -37 -15s-27 5 -37 15s-15 22.333 -15 37z" />
    <glyph glyph-name="ae" unicode="&#xe6;" horiz-adv-x="667" 
d="M272 132c-9.33301 -13.333 -20.166 -25 -32.499 -35s-26.166 -15 -41.499 -15c-17.333 0 -30.333 3.83301 -39 11.5s-13 20.167 -13 37.5c0 12 1.83301 23.333 5.5 34s10.167 21.667 19.5 33s22.166 23 38.499 35s37.166 25.333 62.499 40v-141zM384 340v28
c0 31.333 5.16699 53.833 15.5 67.5s25.5 20.5 45.5 20.5s35.333 -6.83301 46 -20.5s16 -36.167 16 -67.5v-28h-123zM619 248v99.9951c0 29.333 -3 56.333 -9 81s-15.667 45.834 -29 63.501s-30.333 31.334 -51 41.001s-46 14.5 -76 14.5c-25.333 0 -48.166 -4 -68.499 -12
s-37.166 -20.667 -50.499 -38c-28 33.333 -71 50 -129 50c-44.667 0 -82.334 -14.333 -113.001 -43s-47.667 -70.334 -51 -125.001h112c1.33301 23.333 6 41.833 14 55.5s24.667 20.5 50 20.5c36 0 54 -23 54 -69v-32c-40 -15.333 -74.833 -31.166 -104.5 -47.499
s-54.5 -34.166 -74.5 -53.499s-34.833 -40.666 -44.5 -63.999s-14.5 -49.666 -14.5 -78.999c0 -34.667 10 -63.5 30 -86.5s52 -34.5 96 -34.5c8 0 16.833 0.666992 26.5 2s20.5 4.33301 32.5 9s25.5 11.667 40.5 21s31.5 22 49.5 38c12.667 -21.333 30.167 -38.333 52.5 -51
s50.166 -19 83.499 -19c31.333 0 57.833 4.66699 79.5 14s39.5 22.5 53.5 39.5s24.167 37.167 30.5 60.5s9.83301 49.333 10.5 78h-112v-12c0 -31.333 -5.33301 -53.833 -16 -67.5s-26 -20.5 -46 -20.5s-35.167 6.83301 -45.5 20.5s-15.5 36.167 -15.5 67.5v78h235z" />
    <glyph glyph-name="ccedilla" unicode="&#xe7;" 
d="M396 354c-0.666992 28.667 -4.16699 55.002 -10.5 79.002s-16.333 44.5 -30 61.5s-31.5 30.167 -53.5 39.5s-48.667 14 -80 14c-32 0 -59 -4.83301 -81 -14.5s-40 -23.334 -54 -41.001s-24 -38.834 -30 -63.501s-9 -51.667 -9 -81v-158c0 -29.333 3 -56.333 9 -81
s16 -45.834 30 -63.501s32 -31.334 54 -41.001s49 -14.5 81 -14.5s59 4.83301 81 14.5s40 23.334 54 41.001s24 38.834 30 63.501s9 51.667 9 81v14h-112v-34c0 -31.333 -5.33301 -53.833 -16 -67.5s-26 -20.5 -46 -20.5s-35.333 6.83301 -46 20.5s-16 36.167 -16 67.5v198
c0 31.333 5.33301 53.833 16 67.5s26 20.5 46 20.5s35.333 -6.83301 46 -20.5s16 -36.167 16 -67.5v-14h112zM102 -212.998c7.33301 -3.33301 19.665 -8.00195 36.998 -14.002s38 -9 62 -9c16 0 31.5 2.33301 46.5 7s28.167 11.334 39.5 20.001s20.5 19.334 27.5 32.001
s10.5 27 10.5 43c0 12.667 -2.66699 23.667 -8 33s-12.333 17 -21 23s-18.5 10.667 -29.5 14s-21.833 5.33301 -32.5 6c-3.33301 0 -6.83301 -0.166992 -10.5 -0.5s-7.16699 -0.833008 -10.5 -1.5l41 60h-48l-68 -92l22 -18c6.66699 2.66699 14.834 4.66699 24.501 6
s18.834 1 27.501 -1s16 -5.66699 22 -11s9 -13 9 -23c0 -11.333 -5.5 -21 -16.5 -29s-25.167 -12 -42.5 -12c-9.33301 0 -20.5 1.83301 -33.5 5.5s-23.5 7.5 -31.5 11.5z" />
    <glyph glyph-name="egrave" unicode="&#xe8;" 
d="M160 340v28c0 31.333 5.33301 53.833 16 67.5s26 20.5 46 20.5s35.333 -6.83301 46 -20.5s16 -36.167 16 -67.5v-28h-124zM396 348c0 29.333 -3 56.335 -9 81.002s-16 45.834 -30 63.501s-32 31.334 -54 41.001s-49 14.5 -81 14.5s-59 -4.83301 -81 -14.5
s-40 -23.334 -54 -41.001s-24 -38.834 -30 -63.501s-9 -51.667 -9 -81v-158c0 -29.333 3 -56.333 9 -81s16 -45.834 30 -63.501s32 -31.334 54 -41.001s49 -14.5 81 -14.5c31.333 0 57.833 4.66699 79.5 14s39.5 22.5 53.5 39.5s24.167 37.167 30.5 60.5
s9.83301 49.333 10.5 78h-112v-12c0 -31.333 -5.33301 -53.833 -16 -67.5s-26 -20.5 -46 -20.5s-35.333 6.83301 -46 20.5s-16 36.167 -16 67.5v78h236v100zM210 602.002h83l-79 144h-135z" />
    <glyph glyph-name="eacute" unicode="&#xe9;" 
d="M160 340v28c0 31.333 5.33301 53.833 16 67.5s26 20.5 46 20.5s35.333 -6.83301 46 -20.5s16 -36.167 16 -67.5v-28h-124zM396 348c0 29.333 -3 56.335 -9 81.002s-16 45.834 -30 63.501s-32 31.334 -54 41.001s-49 14.5 -81 14.5s-59 -4.83301 -81 -14.5
s-40 -23.334 -54 -41.001s-24 -38.834 -30 -63.501s-9 -51.667 -9 -81v-158c0 -29.333 3 -56.333 9 -81s16 -45.834 30 -63.501s32 -31.334 54 -41.001s49 -14.5 81 -14.5c31.333 0 57.833 4.66699 79.5 14s39.5 22.5 53.5 39.5s24.167 37.167 30.5 60.5
s9.83301 49.333 10.5 78h-112v-12c0 -31.333 -5.33301 -53.833 -16 -67.5s-26 -20.5 -46 -20.5s-35.333 6.83301 -46 20.5s-16 36.167 -16 67.5v78h236v100zM365 746.002h-135l-79 -144h83z" />
    <glyph glyph-name="ecircumflex" unicode="&#xea;" 
d="M160 340v28c0 31.333 5.33301 53.833 16 67.5s26 20.5 46 20.5s35.333 -6.83301 46 -20.5s16 -36.167 16 -67.5v-28h-124zM396 348c0 29.333 -3 56.335 -9 81.002s-16 45.834 -30 63.501s-32 31.334 -54 41.001s-49 14.5 -81 14.5s-59 -4.83301 -81 -14.5
s-40 -23.334 -54 -41.001s-24 -38.834 -30 -63.501s-9 -51.667 -9 -81v-158c0 -29.333 3 -56.333 9 -81s16 -45.834 30 -63.501s32 -31.334 54 -41.001s49 -14.5 81 -14.5c31.333 0 57.833 4.66699 79.5 14s39.5 22.5 53.5 39.5s24.167 37.167 30.5 60.5
s9.83301 49.333 10.5 78h-112v-12c0 -31.333 -5.33301 -53.833 -16 -67.5s-26 -20.5 -46 -20.5s-35.333 6.83301 -46 20.5s-16 36.167 -16 67.5v78h236v100zM71 602.002h92l59 89l59 -89h92l-96 144h-110z" />
    <glyph glyph-name="edieresis" unicode="&#xeb;" 
d="M160 340v28c0 31.333 5.33301 53.833 16 67.5s26 20.5 46 20.5s35.333 -6.83301 46 -20.5s16 -36.167 16 -67.5v-28h-124zM396 348c0 29.333 -3 56.335 -9 81.002s-16 45.834 -30 63.501s-32 31.334 -54 41.001s-49 14.5 -81 14.5s-59 -4.83301 -81 -14.5
s-40 -23.334 -54 -41.001s-24 -38.834 -30 -63.501s-9 -51.667 -9 -81v-158c0 -29.333 3 -56.333 9 -81s16 -45.834 30 -63.501s32 -31.334 54 -41.001s49 -14.5 81 -14.5c31.333 0 57.833 4.66699 79.5 14s39.5 22.5 53.5 39.5s24.167 37.167 30.5 60.5
s9.83301 49.333 10.5 78h-112v-12c0 -31.333 -5.33301 -53.833 -16 -67.5s-26 -20.5 -46 -20.5s-35.333 6.83301 -46 20.5s-16 36.167 -16 67.5v78h236v100zM355 614.002v108h-108v-108h108zM89 722.002v-108h108v108h-108z" />
    <glyph glyph-name="igrave" unicode="&#xec;" horiz-adv-x="222" 
d="M167 0v538h-112v-538h112zM99 602h83l-79 144h-135z" />
    <glyph glyph-name="iacute" unicode="&#xed;" horiz-adv-x="222" 
d="M167 0v538h-112v-538h112zM254 746h-135l-79 -144h83z" />
    <glyph glyph-name="icircumflex" unicode="&#xee;" horiz-adv-x="222" 
d="M167 0v538h-112v-538h112zM-40 602h92l59 89l59 -89h92l-96 144h-110z" />
    <glyph glyph-name="idieresis" unicode="&#xef;" horiz-adv-x="222" 
d="M167 0v538h-112v-538h112zM244 614v108h-108v-108h108zM-22 722v-108h108v108h-108z" />
    <glyph glyph-name="eth" unicode="&#xf0;" 
d="M284 163c0 -28.667 -5.33301 -49.334 -16 -62.001s-26 -19 -46 -19s-35.333 6.33301 -46 19s-16 33.334 -16 62.001v162c0 28.667 5.33301 49.334 16 62.001s26 19 46 19s35.333 -6.33301 46 -19s16 -33.334 16 -62.001v-162zM386 718l-109 -42.002
c-14.667 18.667 -30.334 34 -47.001 46l-86 -24c9.33301 -8 17.833 -16.833 25.5 -26.5s14.834 -19.167 21.501 -28.5l-93 -35l27 -72l105 40c6 -11.333 12 -23.666 18 -36.999s9.66699 -27.666 11 -42.999c-7.33301 0.666992 -13.833 1.16699 -19.5 1.5
s-11.5 0.5 -17.5 0.5c-32 0 -59 -4.5 -81 -13.5s-40 -21.5 -54 -37.5s-24 -35.333 -30 -58s-9 -47.667 -9 -75v-140c0 -27.333 3 -52.333 9 -75s16 -42 30 -58s32 -28.5 54 -37.5s49 -13.5 81 -13.5s59 4.5 81 13.5s40 21.5 54 37.5s24 35.333 30 58s9 47.667 9 75v140
c0 57.333 -7 111.333 -21 162s-32 95.667 -54 135l95 37z" />
    <glyph glyph-name="ntilde" unicode="&#xf1;" 
d="M166 0l0.000976562 421.999c13.333 9.33301 25.666 17.333 36.999 24s23 10 35 10s21.667 -3.16699 29 -9.5s11 -16.166 11 -29.499v-417h112v435c0 35.333 -8.16699 63 -24.5 83s-39.5 30 -69.5 30c-16 0 -30 -1.5 -42 -4.5s-23 -7.16699 -33 -12.5s-19.667 -12 -29 -20
l-32 -27v54h-106v-538h112zM329.001 732.999c-0.666992 -14.667 -4 -25.667 -10 -33s-16.667 -11 -32 -11c-10.667 0 -20.834 2.16699 -30.501 6.5l-29.5 13.5c-10 4.66699 -20.333 9 -31 13s-22 6 -34 6c-16.667 0 -31 -3.5 -43 -10.5s-22 -16 -30 -27
s-14.333 -23.667 -19 -38s-8.33398 -28.5 -11.001 -42.5h56c0.666992 14.667 4 25.667 10 33s16.667 11 32 11c10.667 0 20.834 -1.83301 30.501 -5.5s19.5 -8.16699 29.5 -13.5s20.333 -10 31 -14s22 -6 34 -6c16.667 0 30.834 3.5 42.501 10.5s21.5 16 29.5 27
s14.5 23.667 19.5 38s8.83301 28.5 11.5 42.5h-56z" />
    <glyph glyph-name="ograve" unicode="&#xf2;" 
d="M284 170c0 -31.333 -5.33301 -53.833 -16 -67.5s-26 -20.5 -46 -20.5s-35.333 6.83301 -46 20.5s-16 36.167 -16 67.5v198c0 31.333 5.33301 53.833 16 67.5s26 20.5 46 20.5s35.333 -6.83301 46 -20.5s16 -36.167 16 -67.5v-198zM48 190c0 -29.333 3 -56.333 9 -81
s16 -45.834 30 -63.501s32 -31.334 54 -41.001s49 -14.5 81 -14.5s59 4.83301 81 14.5s40 23.334 54 41.001s24 38.834 30 63.501s9 51.667 9 81v158c0 29.333 -3 56.333 -9 81s-16 45.834 -30 63.501s-32 31.334 -54 41.001s-49 14.5 -81 14.5s-59 -4.83301 -81 -14.5
s-40 -23.334 -54 -41.001s-24 -38.834 -30 -63.501s-9 -51.667 -9 -81v-158zM210 602h83l-79 144h-135z" />
    <glyph glyph-name="oacute" unicode="&#xf3;" 
d="M284 170c0 -31.333 -5.33301 -53.833 -16 -67.5s-26 -20.5 -46 -20.5s-35.333 6.83301 -46 20.5s-16 36.167 -16 67.5v198c0 31.333 5.33301 53.833 16 67.5s26 20.5 46 20.5s35.333 -6.83301 46 -20.5s16 -36.167 16 -67.5v-198zM48 190c0 -29.333 3 -56.333 9 -81
s16 -45.834 30 -63.501s32 -31.334 54 -41.001s49 -14.5 81 -14.5s59 4.83301 81 14.5s40 23.334 54 41.001s24 38.834 30 63.501s9 51.667 9 81v158c0 29.333 -3 56.333 -9 81s-16 45.834 -30 63.501s-32 31.334 -54 41.001s-49 14.5 -81 14.5s-59 -4.83301 -81 -14.5
s-40 -23.334 -54 -41.001s-24 -38.834 -30 -63.501s-9 -51.667 -9 -81v-158zM365 746h-135l-79 -144h83z" />
    <glyph glyph-name="ocircumflex" unicode="&#xf4;" 
d="M284 170c0 -31.333 -5.33301 -53.833 -16 -67.5s-26 -20.5 -46 -20.5s-35.333 6.83301 -46 20.5s-16 36.167 -16 67.5v198c0 31.333 5.33301 53.833 16 67.5s26 20.5 46 20.5s35.333 -6.83301 46 -20.5s16 -36.167 16 -67.5v-198zM48 190c0 -29.333 3 -56.333 9 -81
s16 -45.834 30 -63.501s32 -31.334 54 -41.001s49 -14.5 81 -14.5s59 4.83301 81 14.5s40 23.334 54 41.001s24 38.834 30 63.501s9 51.667 9 81v158c0 29.333 -3 56.333 -9 81s-16 45.834 -30 63.501s-32 31.334 -54 41.001s-49 14.5 -81 14.5s-59 -4.83301 -81 -14.5
s-40 -23.334 -54 -41.001s-24 -38.834 -30 -63.501s-9 -51.667 -9 -81v-158zM71 602h92l59 89l59 -89h92l-96 144h-110z" />
    <glyph glyph-name="otilde" unicode="&#xf5;" 
d="M284 170c0 -31.333 -5.33301 -53.833 -16 -67.5s-26 -20.5 -46 -20.5s-35.333 6.83301 -46 20.5s-16 36.167 -16 67.5v198c0 31.333 5.33301 53.833 16 67.5s26 20.5 46 20.5s35.333 -6.83301 46 -20.5s16 -36.167 16 -67.5v-198zM48 190c0 -29.333 3 -56.333 9 -81
s16 -45.834 30 -63.501s32 -31.334 54 -41.001s49 -14.5 81 -14.5s59 4.83301 81 14.5s40 23.334 54 41.001s24 38.834 30 63.501s9 51.667 9 81v158c0 29.333 -3 56.333 -9 81s-16 45.834 -30 63.501s-32 31.334 -54 41.001s-49 14.5 -81 14.5s-59 -4.83301 -81 -14.5
s-40 -23.334 -54 -41.001s-24 -38.834 -30 -63.501s-9 -51.667 -9 -81v-158zM329 733c-0.666992 -14.667 -4 -25.667 -10 -33s-16.667 -11 -32 -11c-10.667 0 -20.834 2.16699 -30.501 6.5l-29.5 13.5c-10 4.66699 -20.333 9 -31 13s-22 6 -34 6
c-16.667 0 -31 -3.5 -43 -10.5s-22 -16 -30 -27s-14.333 -23.667 -19 -38s-8.33398 -28.5 -11.001 -42.5h56c0.666992 14.667 4 25.667 10 33s16.667 11 32 11c10.667 0 20.834 -1.83301 30.501 -5.5s19.5 -8.16699 29.5 -13.5s20.333 -10 31 -14s22 -6 34 -6
c16.667 0 30.834 3.5 42.501 10.5s21.5 16 29.5 27s14.5 23.667 19.5 38s8.83301 28.5 11.5 42.5h-56z" />
    <glyph glyph-name="odieresis" unicode="&#xf6;" 
d="M284 170c0 -31.333 -5.33301 -53.833 -16 -67.5s-26 -20.5 -46 -20.5s-35.333 6.83301 -46 20.5s-16 36.167 -16 67.5v198c0 31.333 5.33301 53.833 16 67.5s26 20.5 46 20.5s35.333 -6.83301 46 -20.5s16 -36.167 16 -67.5v-198zM48 190c0 -29.333 3 -56.333 9 -81
s16 -45.834 30 -63.501s32 -31.334 54 -41.001s49 -14.5 81 -14.5s59 4.83301 81 14.5s40 23.334 54 41.001s24 38.834 30 63.501s9 51.667 9 81v158c0 29.333 -3 56.333 -9 81s-16 45.834 -30 63.501s-32 31.334 -54 41.001s-49 14.5 -81 14.5s-59 -4.83301 -81 -14.5
s-40 -23.334 -54 -41.001s-24 -38.834 -30 -63.501s-9 -51.667 -9 -81v-158zM355 614v108h-108v-108h108zM89 722v-108h108v108h-108z" />
    <glyph glyph-name="divide" unicode="&#xf7;" horiz-adv-x="600" 
d="M553 204v98h-506v-98h506zM220 460c0 -22 7.83301 -40.833 23.5 -56.5s34.5 -23.5 56.5 -23.5s40.833 7.83301 56.5 23.5s23.5 34.5 23.5 56.5s-7.83301 40.833 -23.5 56.5s-34.5 23.5 -56.5 23.5s-40.833 -7.83301 -56.5 -23.5s-23.5 -34.5 -23.5 -56.5zM220 46
c0 -22 7.83301 -40.833 23.5 -56.5s34.5 -23.5 56.5 -23.5s40.833 7.83301 56.5 23.5s23.5 34.5 23.5 56.5s-7.83301 40.833 -23.5 56.5s-34.5 23.5 -56.5 23.5s-40.833 -7.83301 -56.5 -23.5s-23.5 -34.5 -23.5 -56.5z" />
    <glyph glyph-name="oslash" unicode="&#xf8;" 
d="M282 353h2.00098v-183c0 -31.333 -5.33301 -53.833 -16 -67.5s-26 -20.5 -46 -20.5c-14.667 0 -27.334 4 -38.001 12zM153.001 1c20 -7.33301 42.999 -11 68.999 -11c32 0 59 4.83301 81 14.5s40 23.334 54 41.001s24 38.834 30 63.501s9 51.667 9 81v158
c0 32.667 -3.66699 62.167 -11 88.5s-19.666 48.5 -36.999 66.5l54 143h-68l-41 -109c-22 7.33301 -45.667 11 -71 11c-32 0 -59 -4.83301 -81 -14.5s-40 -23.334 -54 -41.001s-24 -38.834 -30 -63.501s-9 -51.667 -9 -81v-158c0 -33.333 4 -63.333 12 -90
s21.333 -49 40 -67l-58 -153h66zM162 173h-1.99902v195c0 31.333 5.33301 53.833 16 67.5s26 20.5 46 20.5c17.333 0 30.666 -4.66699 39.999 -14z" />
    <glyph glyph-name="ugrave" unicode="&#xf9;" 
d="M278 538l-0.000976562 -421.999c-13.333 -9.33301 -25.666 -17.333 -36.999 -24s-23 -10 -35 -10s-21.667 3.16699 -29 9.5s-11 16.166 -11 29.499v417h-112v-435c0 -35.333 8.16699 -63 24.5 -83s39.5 -30 69.5 -30c16 0 30 1.5 42 4.5s23 7.16699 33 12.5
s19.667 12 29 20l32 27v-54h106v538h-112zM209.999 602.001h83l-79 144h-135z" />
    <glyph glyph-name="uacute" unicode="&#xfa;" 
d="M278 538l-0.000976562 -421.999c-13.333 -9.33301 -25.666 -17.333 -36.999 -24s-23 -10 -35 -10s-21.667 3.16699 -29 9.5s-11 16.166 -11 29.499v417h-112v-435c0 -35.333 8.16699 -63 24.5 -83s39.5 -30 69.5 -30c16 0 30 1.5 42 4.5s23 7.16699 33 12.5
s19.667 12 29 20l32 27v-54h106v538h-112zM364.999 746.001h-135l-79 -144h83z" />
    <glyph glyph-name="ucircumflex" unicode="&#xfb;" 
d="M278 538l-0.000976562 -421.999c-13.333 -9.33301 -25.666 -17.333 -36.999 -24s-23 -10 -35 -10s-21.667 3.16699 -29 9.5s-11 16.166 -11 29.499v417h-112v-435c0 -35.333 8.16699 -63 24.5 -83s39.5 -30 69.5 -30c16 0 30 1.5 42 4.5s23 7.16699 33 12.5
s19.667 12 29 20l32 27v-54h106v538h-112zM70.999 602.001h92l59 89l59 -89h92l-96 144h-110z" />
    <glyph glyph-name="udieresis" unicode="&#xfc;" 
d="M278 538l-0.000976562 -421.999c-13.333 -9.33301 -25.666 -17.333 -36.999 -24s-23 -10 -35 -10s-21.667 3.16699 -29 9.5s-11 16.166 -11 29.499v417h-112v-435c0 -35.333 8.16699 -63 24.5 -83s39.5 -30 69.5 -30c16 0 30 1.5 42 4.5s23 7.16699 33 12.5
s19.667 12 29 20l32 27v-54h106v538h-112zM354.999 614.001v108h-108v-108h108zM88.999 722.001v-108h108v108h-108z" />
    <glyph glyph-name="yacute" unicode="&#xfd;" horiz-adv-x="389" 
d="M198 194l-2 -0.000976562l-72 344h-114l117 -457c3.33301 -13.333 6.16602 -25.666 8.49902 -36.999s3.5 -22.666 3.5 -33.999c0 -28.667 -5.33301 -50.334 -16 -65.001s-30 -22 -58 -22h-27v-92h47c20.667 0 39.167 2.16699 55.5 6.5s30.833 11.5 43.5 21.5
s23.334 23.167 32.001 39.5s16 36.833 22 61.5l141 578h-113zM338 745.999h-135l-79 -144h83z" />
    <glyph glyph-name="thorn" unicode="&#xfe;" 
d="M54 722l-0.00195312 -891.998h112v216c10.667 -9.33301 20.5 -17.333 29.5 -24s17.833 -12.5 26.5 -17.5s17.834 -8.66699 27.501 -11s20.5 -3.5 32.5 -3.5c35.333 0 63.166 12.667 83.499 38s30.5 62.666 30.5 111.999v258c0 49.333 -10.167 86.666 -30.5 111.999
s-48.166 38 -83.499 38c-28 0 -50.167 -4.83301 -66.5 -14.5s-32.166 -25.167 -47.499 -46.5h-2v235h-112zM165.998 428.002c11.333 8 22 14.667 32 20s20.667 8 32 8c7.33301 0 14.333 -1.16699 21 -3.5s12.5 -6.83301 17.5 -13.5s8.83301 -15.5 11.5 -26.5
s4 -25.5 4 -43.5v-200c0 -18 -1.33301 -32.5 -4 -43.5s-6.5 -19.833 -11.5 -26.5s-10.833 -11.167 -17.5 -13.5s-13.667 -3.5 -21 -3.5c-11.333 0 -22 2.66699 -32 8s-20.667 12 -32 20v318z" />
    <glyph glyph-name="ydieresis" unicode="&#xff;" horiz-adv-x="389" 
d="M198 194l-2 -0.000976562l-72 344h-114l117 -457c3.33301 -13.333 6.16602 -25.666 8.49902 -36.999s3.5 -22.666 3.5 -33.999c0 -28.667 -5.33301 -50.334 -16 -65.001s-30 -22 -58 -22h-27v-92h47c20.667 0 39.167 2.16699 55.5 6.5s30.833 11.5 43.5 21.5
s23.334 23.167 32.001 39.5s16 36.833 22 61.5l141 578h-113zM328 613.999v108h-108v-108h108zM62 721.999v-108h108v108h-108z" />
    <glyph glyph-name="dotlessi" unicode="&#x131;" horiz-adv-x="222" 
d="M167 0v538h-112v-538h112z" />
    <glyph glyph-name="Lslash" unicode="&#x141;" horiz-adv-x="389" 
d="M178 339l116 47v82l-116 -47v301h-124v-350l-54 -22v-82l54 22v-290h319v108h-195v231z" />
    <glyph glyph-name="lslash" unicode="&#x142;" horiz-adv-x="222" 
d="M167 390l70 36v74l-70 -36v258h-112v-315l-70 -36v-74l70 36v-333h112v390z" />
    <glyph glyph-name="OE" unicode="&#x152;" horiz-adv-x="722" 
d="M330 185c0 -27.333 -6.33301 -46.668 -19 -58.001s-29.334 -17 -50.001 -17c-28 0 -47.833 8.83301 -59.5 26.5s-17.5 40.5 -17.5 68.5v315c0 28 5.83301 50.833 17.5 68.5s31.5 26.5 59.5 26.5c20.667 0 37.334 -5.66699 50.001 -17s19 -30.666 19 -57.999v-355z
M684 -0.00195312v108h-230v212h168v108h-168v186h216v108h-400c-69.333 0 -121.666 -18.833 -156.999 -56.5s-53 -92.167 -53 -163.5v-282c0 -71.333 17.667 -125.833 53 -163.5s87.666 -56.5 156.999 -56.5h414z" />
    <glyph glyph-name="oe" unicode="&#x153;" horiz-adv-x="667" 
d="M278 170c0 -31.333 -5 -53.833 -15 -67.5s-23.667 -20.5 -41 -20.5c-20 0 -35.333 6.83301 -46 20.5s-16 36.167 -16 67.5v198c0 31.333 5.33301 53.833 16 67.5s26 20.5 46 20.5c17.333 0 31 -6.83301 41 -20.5s15 -36.167 15 -67.5v-198zM390 340v28
c0 31.333 4.16699 53.833 12.5 67.5s22.5 20.5 42.5 20.5s35.333 -6.83301 46 -20.5s16 -36.167 16 -67.5v-28h-117zM619 248l0.000976562 100.002c0 29.333 -3 56.333 -9 81s-15.5 45.834 -28.5 63.501s-29.833 31.334 -50.5 41.001s-45.334 14.5 -74.001 14.5
c-55.333 0 -95 -20.333 -119 -61c-10.667 20.667 -26 36 -46 46s-47.333 15 -82 15c-29.333 0 -54.166 -4.83301 -74.499 -14.5s-37 -23.334 -50 -41.001s-22.5 -38.834 -28.5 -63.501s-9 -51.667 -9 -81v-158c0 -29.333 3 -56.333 9 -81s15.5 -45.834 28.5 -63.501
s29.667 -31.334 50 -41.001s45.166 -14.5 74.499 -14.5c34 0 60.833 5.5 80.5 16.5s34.834 26.167 45.501 45.5c11.333 -19.333 26.666 -34.5 45.999 -45.5s44.333 -16.5 75 -16.5c28 0 52.167 4.66699 72.5 14s37 22.5 50 39.5s22.667 37.167 29 60.5
s9.83301 49.333 10.5 78h-112v-12c0 -31.333 -5.33301 -53.833 -16 -67.5s-26 -20.5 -46 -20.5s-34.167 6.83301 -42.5 20.5s-12.5 36.167 -12.5 67.5v78h229z" />
    <glyph glyph-name="Scaron" unicode="&#x160;" 
d="M404 557c-2.66699 25.333 -8.50195 48.6631 -17.502 69.9961s-20.667 39.833 -35 55.5s-31.5 27.834 -51.5 36.501s-42.667 13 -68 13c-61.333 0 -108.666 -15.5 -141.999 -46.5s-50 -75.5 -50 -133.5c0 -34.667 6.16699 -65 18.5 -91s27.833 -49.333 46.5 -70
s39 -39.667 61 -57s42.333 -34.666 61 -51.999s34.167 -35.333 46.5 -54s18.5 -40 18.5 -64c0 -21.333 -6.66699 -37.666 -20 -48.999s-30.666 -17 -51.999 -17c-20 0 -36.667 9 -50 27s-21.333 45.333 -24 82l-118 -17c1.33301 -27.333 6.33301 -53 15 -77
s20.834 -45.167 36.501 -63.5s34.834 -32.833 57.501 -43.5s48.334 -16 77.001 -16s55.167 4 79.5 12s45 19.833 62 35.5s30.333 35 40 58s14.5 49.5 14.5 79.5c0 32.667 -6.16699 61.834 -18.5 87.501s-27.833 49.167 -46.5 70.5s-39 40.833 -61 58.5
s-42.333 35.167 -61 52.5s-34.167 34.666 -46.5 51.999s-18.5 36.333 -18.5 57c0 22.667 5.33301 40.167 16 52.5s26 18.5 46 18.5c6.66699 0 13.667 -1.33301 21 -4s14.166 -7 20.499 -13s11.666 -14.167 15.999 -24.5s7.16602 -23.166 8.49902 -38.499zM372.998 903.997
h-92l-59 -89l-59 89h-92l96 -144h110z" />
    <glyph glyph-name="scaron" unicode="&#x161;" horiz-adv-x="389" 
d="M353 405c-8.66699 42 -27.168 76.333 -55.501 103s-64.5 40 -108.5 40c-21.333 0 -41 -3.5 -59 -10.5s-33.833 -16.833 -47.5 -29.5s-24.334 -27.834 -32.001 -45.501s-11.5 -37.167 -11.5 -58.5c0 -24.667 5.16699 -46.334 15.5 -65.001s23.333 -35.667 39 -51
s32.5 -29.333 50.5 -42l50.5 -37c15.667 -12 28.667 -24.5 39 -37.5s15.5 -27.167 15.5 -42.5s-4.66699 -27 -14 -35s-21.333 -12 -36 -12c-25.333 0 -43.166 8.5 -53.499 25.5s-17.166 36.833 -20.499 59.5l-98 -27c8.66699 -47.333 27 -84.166 55 -110.499
s66.667 -39.5 116 -39.5c22.667 0 43.667 3 63 9s36 15.167 50 27.5s24.833 27.5 32.5 45.5s11.5 39 11.5 63c0 26.667 -5.16699 50.167 -15.5 70.5s-23.333 38.333 -39 54s-32.5 30 -50.5 43l-50.5 37c-15.667 11.667 -28.667 23.334 -39 35.001s-15.5 24.5 -15.5 38.5
s4.5 24.667 13.5 32s20.833 11 35.5 11c34.667 0 56 -22.333 64 -67zM345.999 746h-92l-59 -89l-59 89h-92l96 -144h110z" />
    <glyph glyph-name="Ydieresis" unicode="&#x178;" 
d="M284 300l150 422h-126l-83 -275h-2l-87 275h-126l150 -422v-300h124v300zM355 772v108h-108v-108h108zM89 880v-108h108v108h-108z" />
    <glyph glyph-name="Zcaron" unicode="&#x17d;" 
d="M275 614l-231 -496v-118h356v108h-228l228 496v118h-328v-108h203zM373 904h-92l-59 -89l-59 89h-92l96 -144h110z" />
    <glyph glyph-name="zcaron" unicode="&#x17e;" horiz-adv-x="389" 
d="M235 446l-205 -354v-92h329v92h-209l209 354v92h-315v-92h191zM346 746h-92l-59 -89l-59 89h-92l96 -144h110z" />
    <glyph glyph-name="florin" unicode="&#x192;" 
d="M34 -165c13.333 -3.33301 26.335 -5 39.002 -5c39.333 0 71 11.833 95 35.5s43.167 58.167 57.5 103.5s25 101 32 167s13.167 141.333 18.5 226h106v84h-102c0.666992 40 3.16699 72.833 7.5 98.5s10 46 17 61s15.167 25.5 24.5 31.5s19.333 9 30 9
c18.667 0 35.667 -4.33301 51 -13v94c-8 1.33301 -15.833 2.5 -23.5 3.5s-15.5 1.5 -23.5 1.5c-24.667 0 -47.834 -4.83301 -69.501 -14.5s-40.834 -25.667 -57.501 -48s-30.5 -51.833 -41.5 -88.5s-17.833 -81.667 -20.5 -135h-100v-84h93
c-6 -94 -11.5 -169.833 -16.5 -227.5s-11 -102.167 -18 -133.5s-15.833 -52.333 -26.5 -63s-25 -16 -43 -16c-5.33301 0 -10.5 0.333008 -15.5 1s-9.5 2 -13.5 4v-92z" />
    <glyph glyph-name="circumflex" unicode="&#x2c6;" horiz-adv-x="222" 
d="M-40 602h92l59 89l59 -89h92l-96 144h-110z" />
    <glyph glyph-name="caron" unicode="&#x2c7;" horiz-adv-x="222" 
d="M262 746h-92l-59 -89l-59 89h-92l96 -144h110z" />
    <glyph glyph-name="breve" unicode="&#x2d8;" horiz-adv-x="222" 
d="M200 749c-3.33301 -26 -12.3291 -44.833 -26.9961 -56.5s-35.334 -17.5 -62.001 -17.5s-47.334 5.83301 -62.001 17.5s-23.667 30.5 -27 56.5h-58c1.33301 -19.333 5.16602 -37.5 11.499 -54.5s15.5 -32 27.5 -45s27 -23.333 45 -31s39 -11.5 63 -11.5
s45 3.83301 63 11.5s33 18 45 31s21.167 28 27.5 45s10.166 35.167 11.499 54.5h-58z" />
    <glyph glyph-name="dotaccent" unicode="&#x2d9;" horiz-adv-x="222" 
d="M57 722v-108h108v108h-108z" />
    <glyph glyph-name="ring" unicode="&#x2da;" horiz-adv-x="222" 
d="M9 704c0 -14 2.66699 -27.167 8 -39.5s12.666 -23.166 21.999 -32.499s20.166 -16.666 32.499 -21.999s25.5 -8 39.5 -8s27.167 2.66699 39.5 8s23.166 12.666 32.499 21.999s16.666 20.166 21.999 32.499s8 25.5 8 39.5s-2.66699 27.167 -8 39.5
s-12.666 23.166 -21.999 32.499s-20.166 16.666 -32.499 21.999s-25.5 8 -39.5 8s-27.167 -2.66699 -39.5 -8s-23.166 -12.666 -32.499 -21.999s-16.666 -20.166 -21.999 -32.499s-8 -25.5 -8 -39.5zM59 704c0 14.667 5 27 15 37s22.333 15 37 15s27 -5 37 -15
s15 -22.333 15 -37s-5 -27 -15 -37s-22.333 -15 -37 -15s-27 5 -37 15s-15 22.333 -15 37z" />
    <glyph glyph-name="ogonek" unicode="&#x2db;" horiz-adv-x="222" 
d="M243 21c-18.667 -3.33301 -40.334 -7.99805 -65.001 -13.998s-48.167 -14.5 -70.5 -25.5s-41.166 -25.333 -56.499 -43s-23 -39.5 -23 -65.5c0 -30 9.5 -52.833 28.5 -68.5s42.167 -23.5 69.5 -23.5c26.667 0 51.667 6.16699 75 18.5s45.666 26.166 66.999 41.499l-19 36
c-12 -8.66699 -26.167 -17.5 -42.5 -26.5s-32.166 -13.5 -47.499 -13.5c-13.333 0 -24.833 4 -34.5 12s-14.5 19.667 -14.5 35c0 16.667 4.5 31.667 13.5 45s20.333 25 34 35s28.167 18.667 43.5 26s29.333 13.666 42 18.999v12z" />
    <glyph glyph-name="tilde" unicode="&#x2dc;" horiz-adv-x="222" 
d="M218 733c-0.666992 -14.667 -4 -25.667 -10 -33s-16.667 -11 -32 -11c-10.667 0 -20.834 2.16699 -30.501 6.5l-29.5 13.5c-10 4.66699 -20.333 9 -31 13s-22 6 -34 6c-16.667 0 -31 -3.5 -43 -10.5s-22 -16 -30 -27s-14.333 -23.667 -19 -38
s-8.33398 -28.5 -11.001 -42.5h56c0.666992 14.667 4 25.667 10 33s16.667 11 32 11c10.667 0 20.834 -1.83301 30.501 -5.5s19.5 -8.16699 29.5 -13.5s20.333 -10 31 -14s22 -6 34 -6c16.667 0 30.834 3.5 42.501 10.5s21.5 16 29.5 27s14.5 23.667 19.5 38
s8.83301 28.5 11.5 42.5h-56z" />
    <glyph glyph-name="hungarumlaut" unicode="&#x2dd;" horiz-adv-x="222" 
d="M158 746h-135l-69 -144h79zM334 746h-135l-79 -144h83z" />
    <glyph glyph-name="endash" unicode="&#x2013;" horiz-adv-x="500" 
d="M500 233v72h-500v-72h500z" />
    <glyph glyph-name="emdash" unicode="&#x2014;" horiz-adv-x="1000" 
d="M1000 233v72h-1000v-72h1000z" />
    <glyph glyph-name="quoteleft" unicode="&#x2018;" horiz-adv-x="222" 
d="M52 490h118v118h-45l49 124h-53l-69 -124v-118z" />
    <glyph glyph-name="quoteright" unicode="&#x2019;" horiz-adv-x="222" 
d="M170 722h-118v-118h45l-49 -124h53l69 124v118z" />
    <glyph glyph-name="quotesinglbase" unicode="&#x201a;" horiz-adv-x="222" 
d="M170 118h-118v-118h45l-49 -124h53l69 124v118z" />
    <glyph glyph-name="quotedblleft" unicode="&#x201c;" 
d="M70 490h118v118h-45l49 124h-53l-69 -124v-118zM255 490h118v118h-45l49 124h-53l-69 -124v-118z" />
    <glyph glyph-name="quotedblright" unicode="&#x201d;" 
d="M374 722h-118v-118h45l-49 -124h53l69 124v118zM189 722h-118v-118h45l-49 -124h53l69 124v118z" />
    <glyph glyph-name="quotedblbase" unicode="&#x201e;" 
d="M374 118h-118v-118h45l-49 -124h53l69 124v118zM189 118h-118v-118h45l-49 -124h53l69 124v118z" />
    <glyph glyph-name="dagger" unicode="&#x2020;" horiz-adv-x="500" 
d="M434 574l-163 -42l39 200h-120l39 -200l-163 42v-124l167 42l-45 -169c10 -34 18 -85 24 -153s12.333 -151.333 19 -250h38c6.66699 98.667 13 182 19 250s14 119 24 153l-45 169l167 -42v124z" />
    <glyph glyph-name="daggerdbl" unicode="&#x2021;" horiz-adv-x="500" 
d="M434 574l-163 -42l39 200h-120l39 -200l-163 42v-124l167 42l-45 -166l45 -166l-167 42v-124l163 42l-39 -200h120l-39 200l163 -42v124l-167 -42l45 166l-45 166l167 -42v124z" />
    <glyph glyph-name="bullet" unicode="&#x2022;" horiz-adv-x="500" 
d="M69 361c0 -25.333 4.66699 -48.833 14 -70.5s22.166 -40.834 38.499 -57.501s35.333 -29.667 57 -39s45.167 -14 70.5 -14c24.667 0 48 4.66699 70 14s41.333 22.333 58 39s29.667 35.834 39 57.501s14 45.167 14 70.5c0 24.667 -4.66699 48 -14 70
s-22.333 41.167 -39 57.5s-36 29.166 -58 38.499s-45.333 14 -70 14c-25.333 0 -48.833 -4.66699 -70.5 -14s-40.667 -22.166 -57 -38.499s-29.166 -35.5 -38.499 -57.5s-14 -45.333 -14 -70z" />
    <glyph glyph-name="ellipsis" unicode="&#x2026;" horiz-adv-x="1000" 
d="M224 0v118h-114v-118h114zM557 0v118h-114v-118h114zM890 0v118h-114v-118h114z" />
    <glyph glyph-name="perthousand" unicode="&#x2030;" horiz-adv-x="1000" 
d="M14 572c0 -20.667 4 -40.167 12 -58.5s18.667 -34.166 32 -47.499s29.166 -24 47.499 -32s37.833 -12 58.5 -12s40.167 4 58.5 12s34.166 18.667 47.499 32s24 29.166 32 47.499s12 37.833 12 58.5s-4 40.167 -12 58.5s-18.667 34.166 -32 47.499s-29.166 24 -47.499 32
s-37.833 12 -58.5 12s-40.167 -4 -58.5 -12s-34.166 -18.667 -47.499 -32s-24 -29.166 -32 -47.499s-12 -37.833 -12 -58.5zM94 572c0 19.333 6.83301 35.833 20.5 49.5s30.167 20.5 49.5 20.5s35.833 -6.83301 49.5 -20.5s20.5 -30.167 20.5 -49.5
s-6.83301 -35.833 -20.5 -49.5s-30.167 -20.5 -49.5 -20.5s-35.833 6.83301 -49.5 20.5s-20.5 30.167 -20.5 49.5zM332 150c0 -20.667 4 -40.167 12 -58.5s18.667 -34.166 32 -47.499s29.166 -24 47.499 -32s37.833 -12 58.5 -12s40.167 4 58.5 12s34.166 18.667 47.499 32
s24 29.166 32 47.499s12 37.833 12 58.5s-4 40.167 -12 58.5s-18.667 34.166 -32 47.499s-29.166 24 -47.499 32s-37.833 12 -58.5 12s-40.167 -4 -58.5 -12s-34.166 -18.667 -47.499 -32s-24 -29.166 -32 -47.499s-12 -37.833 -12 -58.5zM412 150
c0 19.333 6.83301 35.833 20.5 49.5s30.167 20.5 49.5 20.5s35.833 -6.83301 49.5 -20.5s20.5 -30.167 20.5 -49.5s-6.83301 -35.833 -20.5 -49.5s-30.167 -20.5 -49.5 -20.5s-35.833 6.83301 -49.5 20.5s-20.5 30.167 -20.5 49.5zM686 150c0 -20.667 4 -40.167 12 -58.5
s18.667 -34.166 32 -47.499s29.166 -24 47.499 -32s37.833 -12 58.5 -12s40.167 4 58.5 12s34.166 18.667 47.499 32s24 29.166 32 47.499s12 37.833 12 58.5s-4 40.167 -12 58.5s-18.667 34.166 -32 47.499s-29.166 24 -47.499 32s-37.833 12 -58.5 12
s-40.167 -4 -58.5 -12s-34.166 -18.667 -47.499 -32s-24 -29.166 -32 -47.499s-12 -37.833 -12 -58.5zM766 150c0 19.333 6.83301 35.833 20.5 49.5s30.167 20.5 49.5 20.5s35.833 -6.83301 49.5 -20.5s20.5 -30.167 20.5 -49.5s-6.83301 -35.833 -20.5 -49.5
s-30.167 -20.5 -49.5 -20.5s-35.833 6.83301 -49.5 20.5s-20.5 30.167 -20.5 49.5zM96 -10h70l411 742h-70z" />
    <glyph glyph-name="guilsinglleft" unicode="&#x2039;" horiz-adv-x="333" 
d="M160 269l117 154h-99l-115 -153l115 -155h96z" />
    <glyph glyph-name="guilsinglright" unicode="&#x203a;" horiz-adv-x="333" 
d="M59 115h96l115 155l-115 153h-99l117 -154z" />
    <glyph glyph-name="trademark" unicode="&#x2122;" horiz-adv-x="990" 
d="M559 722h-136v-412h92v302h2l110 -302h69l110 302h2v-302h92v412h-135l-103 -271zM370 722h-336v-75h120v-337h96v337h120v75z" />
    <glyph glyph-name="minus" unicode="&#x2212;" horiz-adv-x="600" 
d="M553 204v98h-506v-98h506z" />
    <glyph glyph-name="fraction" unicode="&#x2215;" horiz-adv-x="167" 
d="M-76 -10l410 742h-91l-410 -742h91z" />
    <glyph glyph-name="fi" unicode="&#xfb01;" 
d="M62 0l112 0.000976562v446h64v92h-64v66c0 13.333 2.83301 22.666 8.5 27.999s15.167 8 28.5 8h32v92h-56c-40 0 -70.833 -10.167 -92.5 -30.5s-32.5 -52.5 -32.5 -96.5v-67h-66v-92h66v-446zM389 0.000976562v538h-112v-538h112zM389 620.001v102h-112v-102h112z" />
    <glyph glyph-name="fl" unicode="&#xfb02;" 
d="M62 0l112 0.000976562v446h64v92h-64v66c0 13.333 2.83301 22.666 8.5 27.999s15.167 8 28.5 8h32v92h-56c-40 0 -70.833 -10.167 -92.5 -30.5s-32.5 -52.5 -32.5 -96.5v-67h-66v-92h66v-446zM389 0.000976562v722h-112v-722h112z" />
    <glyph glyph-name=".null" horiz-adv-x="0" 
 />
    <glyph glyph-name="nonmarkingreturn" horiz-adv-x="222" 
 />
    </font>
</defs>
</svg>
